Nunito-Bold.ufo
<glyph name="ampersand" format="1">
  <advance width="1581"/>
  <unicode hex="0026"/>
  <outline>
    <contour>
      <point x="64" y="119"/>
      <point x="306" y="-25"/>
      <point x="624" y="-25" type="curve"/>
      <point x="852" y="-25"/>
      <point x="972" y="56"/>
      <point x="1069" y="152" type="curve"/>
      <point x="1214" y="5" type="line"/>
      <point x="1234" y="-15"/>
      <point x="1252" y="-22"/>
      <point x="1275" y="-22" type="curve"/>
      <point x="1346" y="-22"/>
      <point x="1436" y="59"/>
      <point x="1436" y="129" type="curve"/>
      <point x="1436" y="143"/>
      <point x="1432" y="165"/>
      <point x="1416" y="181" type="curve"/>
      <point x="1283" y="318" type="line"/>
      <point x="1380" y="464"/>
      <point x="1421" y="725"/>
      <point x="1430" y="854" type="curve"/>
      <point x="1435" y="916"/>
      <point x="1371" y="958"/>
      <point x="1311" y="958" type="curve"/>
      <point x="1262" y="958"/>
      <point x="1203" y="949"/>
      <point x="1188" y="895" type="curve"/>
      <point x="1176" y="761"/>
      <point x="1167" y="628"/>
      <point x="1096" y="505" type="curve"/>
      <point x="806" y="811" type="line"/>
      <point x="961" y="916"/>
      <point x="1047" y="1046"/>
      <point x="1047" y="1210" type="curve"/>
      <point x="1047" y="1399"/>
      <point x="849" y="1497"/>
      <point x="655" y="1497" type="curve"/>
      <point x="460" y="1497"/>
      <point x="227" y="1393"/>
      <point x="227" y="1199" type="curve"/>
      <point x="227" y="1055"/>
      <point x="294" y="961"/>
      <point x="404" y="856" type="curve"/>
      <point x="201" y="745"/>
      <point x="64" y="630"/>
      <point x="64" y="397" type="curve"/>
    </contour>
    <contour>
      <point x="881" y="261"/>
      <point x="765" y="205"/>
      <point x="649" y="205" type="curve"/>
      <point x="514" y="205"/>
      <point x="372" y="270"/>
      <point x="372" y="424" type="curve"/>
      <point x="372" y="539"/>
      <point x="468" y="603"/>
      <point x="575" y="659" type="curve"/>
      <point x="900" y="304" type="line"/>
    </contour>
    <contour>
      <point x="805" y="1119"/>
      <point x="710" y="1051"/>
      <point x="636" y="984" type="curve"/>
      <point x="567" y="1044"/>
      <point x="493" y="1133"/>
      <point x="493" y="1211" type="curve"/>
      <point x="493" y="1296"/>
      <point x="574" y="1337"/>
      <point x="651" y="1337" type="curve"/>
      <point x="726" y="1337"/>
      <point x="805" y="1292"/>
      <point x="805" y="1211" type="curve"/>
    </contour>
  </outline>
</glyph>
<glyph name="parenright" format="1">
  <advance width="689"/>
  <unicode hex="0029"/>
  <outline>
    <contour>
      <point x="228" y="-260" type="curve" smooth="yes"/>
      <point x="273" y="-260"/>
      <point x="333" y="-239"/>
      <point x="360" y="-172" type="curve"/>
      <point x="472" y="89"/>
      <point x="548" y="341"/>
      <point x="548" y="600" type="curve" smooth="yes"/>
      <point x="548" y="836"/>
      <point x="483" y="1076"/>
      <point x="390" y="1322" type="curve" smooth="yes"/>
      <point x="354" y="1417"/>
      <point x="301" y="1490"/>
      <point x="232" y="1490" type="curve" smooth="yes"/>
      <point x="164" y="1490"/>
      <point x="110" y="1436"/>
      <point x="110" y="1366" type="curve" smooth="yes"/>
      <point x="110" y="1334"/>
      <point x="120" y="1305"/>
      <point x="130" y="1274" type="curve" smooth="yes"/>
      <point x="204" y="1049"/>
      <point x="245" y="826"/>
      <point x="245" y="606" type="curve" smooth="yes"/>
      <point x="245" y="387"/>
      <point x="207" y="170"/>
      <point x="135" y="-43" type="curve" smooth="yes"/>
      <point x="124" y="-75"/>
      <point x="113" y="-107"/>
      <point x="113" y="-136" type="curve" smooth="yes"/>
      <point x="113" y="-209"/>
      <point x="161" y="-260"/>
    </contour>
  </outline>
</glyph>
<glyph name="asterisk" format="1">
  <advance width="958"/>
  <unicode hex="002A"/>
  <outline>
    <contour>
      <point x="345" y="741"/>
      <point x="403" y="848" type="curve" smooth="yes"/>
      <point x="477" y="985" type="line"/>
      <point x="553" y="848" type="line" smooth="yes"/>
      <point x="607" y="751"/>
      <point x="745" y="811"/>
      <point x="666" y="940" type="curve" smooth="yes"/>
      <point x="599" y="1049" type="line"/>
      <point x="776" y="1045" type="line"/>
      <point x="872" y="1045"/>
      <point x="872" y="1188"/>
      <point x="776" y="1188" type="curve"/>
      <point x="600" y="1183" type="line"/>
      <point x="679" y="1313" type="line" smooth="yes"/>
      <point x="741" y="1412"/>
      <point x="612" y="1490"/>
      <point x="554" y="1384" type="curve" smooth="yes"/>
      <point x="477" y="1243" type="line"/>
      <point x="396" y="1394" type="line" smooth="yes"/>
      <point x="349" y="1481"/>
      <point x="213" y="1417"/>
      <point x="282" y="1303" type="curve" smooth="yes"/>
      <point x="355" y="1183" type="line"/>
      <point x="182" y="1188" type="line"/>
      <point x="85" y="1188"/>
      <point x="86" y="1045"/>
      <point x="182" y="1045" type="curve"/>
      <point x="357" y="1049" type="line"/>
      <point x="278" y="920" type="line" smooth="yes"/>
      <point x="215" y="817"/>
    </contour>
  </outline>
</glyph>
<glyph name="two" format="1">
  <advance width="1299"/>
  <unicode hex="0032"/>
  <outline>
    <contour>
      <point x="263" y="0" type="curve" smooth="yes"/>
      <point x="995" y="0" type="line" smooth="yes"/>
      <point x="1058" y="0"/>
      <point x="1090" y="67"/>
      <point x="1090" y="132" type="curve" smooth="yes"/>
      <point x="1090" y="197"/>
      <point x="1059" y="260"/>
      <point x="995" y="260" type="curve" smooth="yes"/>
      <point x="483" y="260" type="line"/>
      <point x="876" y="587" type="line" smooth="yes"/>
      <point x="1044" y="727"/>
      <point x="1117" y="886"/>
      <point x="1117" y="1029" type="curve" smooth="yes"/>
      <point x="1117" y="1256"/>
      <point x="933" y="1443"/>
      <point x="651" y="1452" type="curve" smooth="yes"/>
      <point x="477" y="1457"/>
      <point x="322" y="1401"/>
      <point x="193" y="1328" type="curve" smooth="yes"/>
      <point x="37.5852" y="1240.16"/>
      <point x="205.982" y="1039.99"/>
      <point x="300" y="1087" type="curve" smooth="yes"/>
      <point x="389" y="1134"/>
      <point x="460" y="1192"/>
      <point x="592" y="1192" type="curve" smooth="yes"/>
      <point x="697" y="1192"/>
      <point x="788" y="1120"/>
      <point x="788" y="1017" type="curve" smooth="yes"/>
      <point x="788" y="959"/>
      <point x="759" y="891"/>
      <point x="687" y="820" type="curve" smooth="yes"/>
      <point x="172" y="314" type="line" smooth="yes"/>
      <point x="64.6667" y="206.667"/>
      <point x="93.7857" y="0"/>
    </contour>
  </outline>
</glyph>
<glyph name="four" format="1">
  <advance width="1299"/>
  <unicode hex="0034"/>
  <outline>
    <contour>
      <point x="853" y="-8" type="curve" smooth="yes"/>
      <point x="981" y="-8"/>
      <point x="1025" y="69"/>
      <point x="1025" y="185" type="curve" smooth="yes"/>
      <point x="1025" y="305" type="line"/>
      <point x="1116" y="305" type="line" smooth="yes"/>
      <point x="1219" y="305"/>
      <point x="1262" y="347"/>
      <point x="1262" y="428" type="curve" smooth="yes"/>
      <point x="1262" y="521"/>
      <point x="1198" y="551"/>
      <point x="1116" y="551" type="curve" smooth="yes"/>
      <point x="1026" y="551" type="line"/>
      <point x="1026" y="1182" type="line" smooth="yes"/>
      <point x="1026" y="1396"/>
      <point x="933" y="1450"/>
      <point x="758" y="1450" type="curve" smooth="yes"/>
      <point x="623" y="1450"/>
      <point x="535" y="1393"/>
      <point x="486" y="1301" type="curve" smooth="yes"/>
      <point x="75" y="524" type="line" smooth="yes"/>
      <point x="3.88889" y="386.222"/>
      <point x="76.9355" y="305"/>
      <point x="215" y="305" type="curve" smooth="yes"/>
      <point x="686" y="305" type="line"/>
      <point x="686" y="181" type="line" smooth="yes"/>
      <point x="686" y="59"/>
      <point x="736" y="-8"/>
    </contour>
    <contour>
      <point x="371" y="551" type="line"/>
      <point x="686" y="1196" type="line"/>
      <point x="686" y="551" type="line"/>
    </contour>
  </outline>
</glyph>
<glyph name="five" format="1">
  <advance width="1299"/>
  <unicode hex="0035"/>
  <outline>
    <contour>
      <point x="631" y="-26" type="curve" smooth="yes"/>
      <point x="952" y="-26"/>
      <point x="1193" y="154"/>
      <point x="1193" y="457" type="curve" smooth="yes"/>
      <point x="1193" y="760"/>
      <point x="1007" y="917"/>
      <point x="754" y="917" type="curve" smooth="yes"/>
      <point x="610" y="917"/>
      <point x="496" y="852"/>
      <point x="496" y="852" type="curve"/>
      <point x="506" y="1213" type="line"/>
      <point x="966" y="1213" type="line" smooth="yes"/>
      <point x="1059" y="1213"/>
      <point x="1112" y="1250"/>
      <point x="1112" y="1333" type="curve" smooth="yes"/>
      <point x="1112" y="1417"/>
      <point x="1054" y="1453"/>
      <point x="985" y="1453" type="curve" smooth="yes"/>
      <point x="430" y="1453" type="line" smooth="yes"/>
      <point x="275" y="1453"/>
      <point x="208" y="1426"/>
      <point x="208" y="1288" type="curve" smooth="yes"/>
      <point x="208" y="752" type="line" smooth="yes"/>
      <point x="208" y="641"/>
      <point x="275" y="592"/>
      <point x="340" y="592" type="curve" smooth="yes"/>
      <point x="367" y="592"/>
      <point x="394" y="600"/>
      <point x="415" y="616" type="curve" smooth="yes"/>
      <point x="477" y="662"/>
      <point x="549" y="684"/>
      <point x="615" y="684" type="curve" smooth="yes"/>
      <point x="734" y="684"/>
      <point x="848" y="604"/>
      <point x="848" y="442" type="curve" smooth="yes"/>
      <point x="848" y="284"/>
      <point x="759" y="218"/>
      <point x="626" y="218" type="curve" smooth="yes"/>
      <point x="517" y="218"/>
      <point x="424" y="265"/>
      <point x="355" y="325" type="curve" smooth="yes"/>
      <point x="338" y="339"/>
      <point x="191" y="150"/>
      <point x="210" y="133" type="curve" smooth="yes"/>
      <point x="290" y="62"/>
      <point x="430" y="-26"/>
    </contour>
  </outline>
</glyph>
<glyph name="question" format="1">
  <advance width="1064"/>
  <unicode hex="003F"/>
  <outline>
    <contour>
      <point x="415" y="378" type="curve"/>
      <point x="539" y="378"/>
      <point x="575" y="474"/>
      <point x="575" y="545" type="curve"/>
      <point x="578" y="612"/>
      <point x="628" y="646"/>
      <point x="711" y="718" type="curve" smooth="yes"/>
      <point x="828" y="819"/>
      <point x="964" y="926"/>
      <point x="969" y="1112" type="curve"/>
      <point x="969" y="1395"/>
      <point x="750" y="1514"/>
      <point x="490" y="1514" type="curve" smooth="yes"/>
      <point x="389" y="1514"/>
      <point x="275" y="1503"/>
      <point x="171" y="1472" type="curve" smooth="yes"/>
      <point x="100" y="1451"/>
      <point x="69" y="1399"/>
      <point x="69" y="1350" type="curve" smooth="yes"/>
      <point x="69" y="1273"/>
      <point x="118" y="1222"/>
      <point x="186" y="1222" type="curve" smooth="yes"/>
      <point x="193" y="1222"/>
      <point x="199" y="1222"/>
      <point x="206" y="1223" type="curve" smooth="yes"/>
      <point x="253" y="1230"/>
      <point x="301" y="1233"/>
      <point x="325" y="1234" type="curve"/>
      <point x="356" y="1238"/>
      <point x="385" y="1241"/>
      <point x="412" y="1241" type="curve" smooth="yes"/>
      <point x="507" y="1241"/>
      <point x="596" y="1200"/>
      <point x="596" y="1084" type="curve" smooth="yes"/>
      <point x="596" y="1029"/>
      <point x="567" y="975"/>
      <point x="530" y="929" type="curve" smooth="yes"/>
      <point x="454" y="836"/>
      <point x="290" y="750"/>
      <point x="282" y="586" type="curve"/>
      <point x="282" y="537" type="line" smooth="yes"/>
      <point x="282" y="428"/>
      <point x="331" y="385"/>
    </contour>
    <contour>
      <point x="429" y="-58" type="curve" smooth="yes"/>
      <point x="525" y="-58"/>
      <point x="598" y="16"/>
      <point x="598" y="107" type="curve" smooth="yes"/>
      <point x="598" y="203"/>
      <point x="517" y="270"/>
      <point x="429" y="270" type="curve" smooth="yes"/>
      <point x="328" y="270"/>
      <point x="260" y="192"/>
      <point x="260" y="107" type="curve" smooth="yes"/>
      <point x="260" y="16"/>
      <point x="333" y="-58"/>
    </contour>
  </outline>
</glyph>
<glyph name="A" format="1">
  <advance width="1505"/>
  <unicode hex="0041"/>
  <outline>
    <contour>
      <point x="746" y="1169" type="line"/>
      <point x="1105" y="132" type="line" smooth="yes"/>
      <point x="1184" y="-97"/>
      <point x="1505" y="-1"/>
      <point x="1419" y="232" type="curve" smooth="yes"/>
      <point x="1056" y="1210" type="line" smooth="yes"/>
      <point x="975" y="1428"/>
      <point x="870" y="1472"/>
      <point x="746" y="1472" type="curve"/>
    </contour>
    <contour>
      <point x="1141" y="537" type="line"/>
      <point x="373" y="537" type="line"/>
      <point x="302" y="331" type="line"/>
      <point x="1213" y="331" type="line"/>
    </contour>
    <contour>
      <point x="746" y="1169" type="line"/>
      <point x="746" y="1472" type="line"/>
      <point x="622" y="1472"/>
      <point x="517" y="1428"/>
      <point x="436" y="1210" type="curve" smooth="yes"/>
      <point x="73" y="232" type="line" smooth="yes"/>
      <point x="-13" y="-1"/>
      <point x="308" y="-97"/>
      <point x="387" y="132" type="curve" smooth="yes"/>
    </contour>
    <contour>
      <point x="1266" y="19" type="move" name="ogonek"/>
    </contour>
    <contour>
      <point x="744" y="1438" type="move" name="top"/>
    </contour>
  </outline>
</glyph>
<glyph name="B" format="1">
  <advance width="1428"/>
  <unicode hex="0042"/>
  <outline>
    <contour>
      <point x="382" y="0" type="curve" smooth="yes"/>
      <point x="830" y="0" type="line" smooth="yes"/>
      <point x="1179" y="0"/>
      <point x="1336" y="199"/>
      <point x="1336" y="402" type="curve" smooth="yes"/>
      <point x="1336" y="587"/>
      <point x="1210" y="726"/>
      <point x="1010" y="755" type="curve"/>
      <point x="1010" y="759" type="line"/>
      <point x="1175" y="788"/>
      <point x="1283" y="930"/>
      <point x="1283" y="1087" type="curve" smooth="yes"/>
      <point x="1283" y="1440"/>
      <point x="937" y="1452"/>
      <point x="665" y="1452" type="curve" smooth="yes"/>
      <point x="382" y="1452" type="line" smooth="yes"/>
      <point x="258" y="1452"/>
      <point x="150" y="1401"/>
      <point x="150" y="1276" type="curve" smooth="yes"/>
      <point x="150" y="257" type="line" smooth="yes"/>
      <point x="150" y="36"/>
      <point x="231" y="0"/>
    </contour>
    <contour>
      <point x="503" y="224" type="line"/>
      <point x="503" y="649" type="line"/>
      <point x="637" y="649" type="line" smooth="yes"/>
      <point x="840" y="649"/>
      <point x="973" y="608"/>
      <point x="973" y="441" type="curve" smooth="yes"/>
      <point x="973" y="259"/>
      <point x="860" y="224"/>
      <point x="647" y="224" type="curve" smooth="yes"/>
    </contour>
    <contour>
      <point x="503" y="831" type="line"/>
      <point x="503" y="1228" type="line"/>
      <point x="650" y="1228" type="line" smooth="yes"/>
      <point x="806" y="1228"/>
      <point x="935" y="1197"/>
      <point x="935" y="1035" type="curve" smooth="yes"/>
      <point x="935" y="872"/>
      <point x="806" y="831"/>
      <point x="629" y="831" type="curve" smooth="yes"/>
    </contour>
    <contour>
      <point x="706" y="1438" type="move" name="top"/>
    </contour>
  </outline>
</glyph>
<glyph name="D" format="1">
  <advance width="1543"/>
  <unicode hex="0044"/>
  <outline>
    <contour>
      <point x="333" y="0" type="curve" smooth="yes"/>
      <point x="645" y="0" type="line" smooth="yes"/>
      <point x="1168" y="0"/>
      <point x="1441" y="245"/>
      <point x="1441" y="716" type="curve" smooth="yes"/>
      <point x="1441" y="1200"/>
      <point x="1158" y="1452"/>
      <point x="616" y="1452" type="curve" smooth="yes"/>
      <point x="404" y="1452" type="line" smooth="yes"/>
      <point x="215" y="1452"/>
      <point x="150" y="1375"/>
      <point x="150" y="1195" type="curve" smooth="yes"/>
      <point x="150" y="255" type="line" smooth="yes"/>
      <point x="150" y="128"/>
      <point x="188" y="0"/>
    </contour>
    <contour>
      <point x="516" y="244" type="line"/>
      <point x="516" y="1206" type="line"/>
      <point x="636" y="1206" type="line" smooth="yes"/>
      <point x="934" y="1206"/>
      <point x="1053" y="1083"/>
      <point x="1053" y="725" type="curve" smooth="yes"/>
      <point x="1053" y="367"/>
      <point x="931" y="244"/>
      <point x="627" y="244" type="curve" smooth="yes"/>
    </contour>
    <contour>
      <point x="746" y="1438" type="move" name="top"/>
    </contour>
  </outline>
</glyph>
<glyph name="E" format="1">
  <advance width="1268"/>
  <unicode hex="0045"/>
  <outline>
    <contour>
      <point x="330" y="0" type="curve" smooth="yes"/>
      <point x="1049" y="0" type="line" smooth="yes"/>
      <point x="1121" y="0"/>
      <point x="1179" y="57"/>
      <point x="1179" y="129" type="curve" smooth="yes"/>
      <point x="1179" y="201"/>
      <point x="1121" y="259"/>
      <point x="1049" y="259" type="curve" smooth="yes"/>
      <point x="509" y="259" type="line"/>
      <point x="509" y="609" type="line"/>
      <point x="979" y="609" type="line" smooth="yes"/>
      <point x="1056" y="609"/>
      <point x="1119" y="666"/>
      <point x="1119" y="738" type="curve" smooth="yes"/>
      <point x="1119" y="810"/>
      <point x="1056" y="868"/>
      <point x="979" y="868" type="curve" smooth="yes"/>
      <point x="509" y="868" type="line"/>
      <point x="509" y="1192" type="line"/>
      <point x="1024" y="1192" type="line" smooth="yes"/>
      <point x="1101" y="1192"/>
      <point x="1164" y="1249"/>
      <point x="1164" y="1321" type="curve" smooth="yes"/>
      <point x="1164" y="1393"/>
      <point x="1101" y="1452"/>
      <point x="1024" y="1452" type="curve" smooth="yes"/>
      <point x="382" y="1452" type="line" smooth="yes"/>
      <point x="174" y="1452"/>
      <point x="150" y="1340"/>
      <point x="150" y="1188" type="curve" smooth="yes"/>
      <point x="150" y="235" type="line" smooth="yes"/>
      <point x="150" y="123"/>
      <point x="194" y="0"/>
    </contour>
    <contour>
      <point x="835" y="9" type="move" name="ogonek"/>
    </contour>
    <contour>
      <point x="666" y="1438" type="move" name="top"/>
    </contour>
  </outline>
</glyph>
<glyph name="G" format="1">
  <advance width="1537"/>
  <unicode hex="0047"/>
  <outline>
    <contour>
      <point x="340" y="1486"/>
      <point x="102" y="1144"/>
      <point x="102" y="725" type="curve" smooth="yes"/>
      <point x="102" y="204"/>
      <point x="399" y="-35"/>
      <point x="868" y="-35" type="curve" smooth="yes"/>
      <point x="964" y="-35"/>
      <point x="1094" y="-14"/>
      <point x="1190" y="1" type="curve" smooth="yes"/>
      <point x="1414" y="37"/>
      <point x="1445" y="106"/>
      <point x="1445" y="314" type="curve" smooth="yes"/>
      <point x="1445" y="612" type="line" smooth="yes"/>
      <point x="1445" y="725"/>
      <point x="1427" y="782"/>
      <point x="1322" y="782" type="curve" smooth="yes"/>
      <point x="1189" y="782"/>
      <point x="1076" y="783"/>
      <point x="944" y="783" type="curve" smooth="yes"/>
      <point x="860" y="783"/>
      <point x="820" y="740"/>
      <point x="820" y="679" type="curve" smooth="yes"/>
      <point x="820" y="599"/>
      <point x="882" y="572"/>
      <point x="964" y="572" type="curve" smooth="yes"/>
      <point x="1098" y="572" type="line"/>
      <point x="1098" y="264" type="line"/>
      <point x="1024" y="246"/>
      <point x="952" y="236"/>
      <point x="885" y="236" type="curve" smooth="yes"/>
      <point x="661" y="236"/>
      <point x="489" y="351"/>
      <point x="489" y="710" type="curve" smooth="yes"/>
      <point x="489" y="1031"/>
      <point x="623" y="1219"/>
      <point x="888" y="1219" type="curve" smooth="yes"/>
      <point x="994" y="1219"/>
      <point x="1138" y="1189"/>
      <point x="1218" y="1145" type="curve" smooth="yes"/>
      <point x="1240" y="1133"/>
      <point x="1262" y="1127"/>
      <point x="1282" y="1127" type="curve" smooth="yes"/>
      <point x="1350" y="1127"/>
      <point x="1402" y="1189"/>
      <point x="1402" y="1255" type="curve" smooth="yes"/>
      <point x="1402" y="1290.3"/>
      <point x="1383.99" y="1336.68"/>
      <point x="1337" y="1368" type="curve" smooth="yes"/>
      <point x="1228" y="1440"/>
      <point x="1036" y="1486"/>
      <point x="865" y="1486" type="curve" smooth="yes"/>
    </contour>
    <contour>
      <point x="875" y="0" type="move" name="bot"/>
    </contour>
    <contour>
      <point x="826" y="1438" type="move" name="top"/>
    </contour>
  </outline>
</glyph>
<glyph name="J" format="1">
  <advance width="1173"/>
  <unicode hex="004A"/>
  <outline>
    <contour>
      <point x="513" y="-34" type="curve" smooth="yes"/>
      <point x="845" y="-34"/>
      <point x="1037" y="139"/>
      <point x="1038" y="474" type="curve" smooth="yes"/>
      <point x="1039" y="1258" type="line" smooth="yes"/>
      <point x="1039" y="1367"/>
      <point x="956" y="1453"/>
      <point x="853" y="1453" type="curve" smooth="yes"/>
      <point x="750" y="1453"/>
      <point x="668" y="1367"/>
      <point x="668" y="1258" type="curve" smooth="yes"/>
      <point x="668" y="503" type="line" smooth="yes"/>
      <point x="668" y="332"/>
      <point x="610" y="277"/>
      <point x="479" y="277" type="curve" smooth="yes"/>
      <point x="414" y="277"/>
      <point x="353" y="310"/>
      <point x="315" y="339" type="curve" smooth="yes"/>
      <point x="281" y="365"/>
      <point x="246" y="376"/>
      <point x="215" y="376" type="curve" smooth="yes"/>
      <point x="134" y="376"/>
      <point x="71" y="304"/>
      <point x="71" y="221" type="curve" smooth="yes"/>
      <point x="71" y="212"/>
      <point x="72" y="203"/>
      <point x="73" y="194" type="curve"/>
      <point x="79" y="160"/>
      <point x="97" y="124"/>
      <point x="130" y="93" type="curve" smooth="yes"/>
      <point x="221" y="7"/>
      <point x="365" y="-34"/>
    </contour>
    <contour>
      <point x="856" y="1438" type="move" name="top"/>
    </contour>
  </outline>
</glyph>
<glyph name="L" format="1">
  <advance width="1190"/>
  <unicode hex="004C"/>
  <outline>
    <contour>
      <point x="336" y="0" type="curve" smooth="yes"/>
      <point x="1021" y="0" type="line" smooth="yes"/>
      <point x="1094" y="0"/>
      <point x="1154" y="60"/>
      <point x="1154" y="133" type="curve" smooth="yes"/>
      <point x="1154" y="206"/>
      <point x="1094" y="266"/>
      <point x="1021" y="266" type="curve" smooth="yes"/>
      <point x="522" y="266" type="line"/>
      <point x="521" y="1258" type="line" smooth="yes"/>
      <point x="521" y="1367"/>
      <point x="438" y="1453"/>
      <point x="335" y="1453" type="curve" smooth="yes"/>
      <point x="232" y="1453"/>
      <point x="150" y="1367"/>
      <point x="150" y="1258" type="curve" smooth="yes"/>
      <point x="150" y="273" type="line" smooth="yes"/>
      <point x="150" y="137"/>
      <point x="191" y="0"/>
    </contour>
    <contour>
      <point x="674" y="0" type="move" name="bot"/>
    </contour>
    <contour>
      <point x="646" y="1438" type="move" name="top"/>
    </contour>
  </outline>
</glyph>
<glyph name="M" format="1">
  <advance width="2015"/>
  <unicode hex="004D"/>
  <outline>
    <contour>
      <point x="1126" y="67"/>
      <point x="1172" y="133"/>
      <point x="1222" y="259" type="curve" smooth="yes"/>
      <point x="1548" y="1089" type="line"/>
      <point x="1547" y="126" type="line" smooth="yes"/>
      <point x="1547" y="-69"/>
      <point x="1860" y="-65"/>
      <point x="1860" y="126" type="curve" smooth="yes"/>
      <point x="1861" y="1200" type="line" smooth="yes"/>
      <point x="1861" y="1460"/>
      <point x="1437" y="1574"/>
      <point x="1298" y="1218" type="curve" smooth="yes"/>
      <point x="1007" y="474" type="line"/>
      <point x="1007" y="67" type="line"/>
    </contour>
    <contour>
      <point x="1007" y="474" type="line"/>
      <point x="716" y="1218" type="line" smooth="yes"/>
      <point x="577" y="1574"/>
      <point x="153" y="1460"/>
      <point x="153" y="1200" type="curve" smooth="yes"/>
      <point x="154" y="126" type="line" smooth="yes"/>
      <point x="154" y="-65"/>
      <point x="467" y="-69"/>
      <point x="467" y="126" type="curve"/>
      <point x="467" y="1089" type="line"/>
      <point x="792" y="259" type="line" smooth="yes"/>
      <point x="842" y="132"/>
      <point x="888" y="67"/>
      <point x="1007" y="67" type="curve"/>
    </contour>
    <contour>
      <point x="1026" y="1438" type="move" name="top"/>
    </contour>
  </outline>
</glyph>
<glyph name="O" format="1">
  <advance width="1634"/>
  <unicode hex="004F"/>
  <outline>
    <contour>
      <point x="817" y="224" type="curve" smooth="yes"/>
      <point x="584" y="224"/>
      <point x="491" y="367"/>
      <point x="491" y="725" type="curve" smooth="yes"/>
      <point x="491" y="1084"/>
      <point x="584" y="1227"/>
      <point x="817" y="1227" type="curve" smooth="yes"/>
      <point x="1051" y="1227"/>
      <point x="1144" y="1084"/>
      <point x="1144" y="725" type="curve" smooth="yes"/>
      <point x="1144" y="367"/>
      <point x="1051" y="224"/>
    </contour>
    <contour>
      <point x="817" y="-35" type="curve" smooth="yes"/>
      <point x="1287" y="-35"/>
      <point x="1532" y="226"/>
      <point x="1532" y="725" type="curve" smooth="yes"/>
      <point x="1532" y="1225"/>
      <point x="1287" y="1486"/>
      <point x="817" y="1486" type="curve" smooth="yes"/>
      <point x="347" y="1486"/>
      <point x="102" y="1225"/>
      <point x="102" y="725" type="curve" smooth="yes"/>
      <point x="102" y="226"/>
      <point x="347" y="-35"/>
    </contour>
    <contour>
      <point x="816" y="1452" type="move" name="top"/>
    </contour>
    <contour>
      <point x="848" y="23" type="move" name="ogonek"/>
    </contour>
  </outline>
</glyph>
<glyph name="P" format="1">
  <advance width="1373"/>
  <unicode hex="0050"/>
  <outline>
    <contour>
      <point x="335" y="0" type="curve" smooth="yes"/>
      <point x="437" y="0"/>
      <point x="522" y="86"/>
      <point x="522" y="195" type="curve" smooth="yes"/>
      <point x="522" y="554" type="line"/>
      <point x="780" y="554" type="line" smooth="yes"/>
      <point x="1133" y="554"/>
      <point x="1341" y="699"/>
      <point x="1341" y="1005" type="curve" smooth="yes"/>
      <point x="1341" y="1361"/>
      <point x="1087" y="1453"/>
      <point x="780" y="1453" type="curve" smooth="yes"/>
      <point x="390" y="1453" type="line" smooth="yes"/>
      <point x="175" y="1453"/>
      <point x="150" y="1331"/>
      <point x="150" y="1178" type="curve" smooth="yes"/>
      <point x="150" y="195" type="line" smooth="yes"/>
      <point x="150" y="86"/>
      <point x="232" y="0"/>
    </contour>
    <contour>
      <point x="522" y="777" type="line"/>
      <point x="522" y="1216" type="line"/>
      <point x="736" y="1216" type="line" smooth="yes"/>
      <point x="892" y="1216"/>
      <point x="977" y="1182"/>
      <point x="977" y="1005" type="curve" smooth="yes"/>
      <point x="977" y="821"/>
      <point x="889" y="781"/>
      <point x="719" y="777" type="curve"/>
    </contour>
    <contour>
      <point x="736" y="1438" type="move" name="top"/>
    </contour>
  </outline>
</glyph>
<glyph name="R" format="1">
  <advance width="1459"/>
  <unicode hex="0052"/>
  <outline>
    <contour>
      <point x="335" y="0" type="curve" smooth="yes"/>
      <point x="438" y="0"/>
      <point x="521" y="64"/>
      <point x="521" y="195" type="curve" smooth="yes"/>
      <point x="521" y="598" type="line"/>
      <point x="724" y="598" type="line" smooth="yes"/>
      <point x="883.71" y="598"/>
      <point x="928.401" y="524.388"/>
      <point x="953.984" y="372.902" type="curve" smooth="yes"/>
      <point x="959.957" y="337.532"/>
      <point x="964.889" y="297.916"/>
      <point x="970" y="254" type="curve" smooth="yes"/>
      <point x="990" y="86"/>
      <point x="1030" y="0"/>
      <point x="1173" y="0" type="curve" smooth="yes"/>
      <point x="1327.12" y="0"/>
      <point x="1359.37" y="21.1765"/>
      <point x="1328" y="280" type="curve"/>
      <point x="1323.18" y="332.315"/>
      <point x="1318.51" y="379.169"/>
      <point x="1312.88" y="421.079" type="curve" smooth="yes"/>
      <point x="1284.66" y="631.518"/>
      <point x="1232.65" y="717.315"/>
      <point x="1020" y="744" type="curve"/>
      <point x="1020" y="748" type="line"/>
      <point x="1257" y="788"/>
      <point x="1342" y="922"/>
      <point x="1342" y="1088" type="curve" smooth="yes"/>
      <point x="1342" y="1391"/>
      <point x="1075" y="1453"/>
      <point x="779" y="1453" type="curve" smooth="yes"/>
      <point x="378" y="1453" type="line" smooth="yes"/>
      <point x="255" y="1453"/>
      <point x="150" y="1392"/>
      <point x="150" y="1269" type="curve" smooth="yes"/>
      <point x="150" y="195" type="line" smooth="yes"/>
      <point x="150" y="69"/>
      <point x="232" y="0"/>
    </contour>
    <contour>
      <point x="515" y="830" type="line"/>
      <point x="515" y="1228" type="line"/>
      <point x="666" y="1228" type="line" smooth="yes"/>
      <point x="825" y="1228"/>
      <point x="978" y="1224"/>
      <point x="978" y="1029" type="curve" smooth="yes"/>
      <point x="978" y="853"/>
      <point x="819" y="830"/>
      <point x="675" y="830" type="curve" smooth="yes"/>
    </contour>
    <contour>
      <point x="762" y="0" type="move" name="bot"/>
    </contour>
    <contour>
      <point x="736" y="1438" type="move" name="top"/>
    </contour>
  </outline>
</glyph>
<glyph name="S" format="1">
  <advance width="1371"/>
  <unicode hex="0053"/>
  <outline>
    <contour>
      <point x="695" y="-35" type="curve" smooth="yes"/>
      <point x="1063" y="-35"/>
      <point x="1293" y="139"/>
      <point x="1293" y="419" type="curve" smooth="yes"/>
      <point x="1293" y="675"/>
      <point x="1107" y="772"/>
      <point x="824" y="856" type="curve" smooth="yes"/>
      <point x="773" y="871"/>
      <point x="722" y="884"/>
      <point x="674" y="899" type="curve" smooth="yes"/>
      <point x="556" y="936"/>
      <point x="461" y="980"/>
      <point x="461" y="1073" type="curve" smooth="yes"/>
      <point x="461" y="1184"/>
      <point x="592" y="1227"/>
      <point x="720" y="1227" type="curve" smooth="yes"/>
      <point x="856" y="1227"/>
      <point x="939" y="1201"/>
      <point x="1064" y="1137" type="curve" smooth="yes"/>
      <point x="1168.31" y="1081.78"/>
      <point x="1285.49" y="1254.55"/>
      <point x="1180" y="1351" type="curve" smooth="yes"/>
      <point x="1077" y="1444"/>
      <point x="856" y="1486"/>
      <point x="706" y="1486" type="curve" smooth="yes"/>
      <point x="338" y="1486"/>
      <point x="109" y="1315"/>
      <point x="109" y="1048" type="curve" smooth="yes"/>
      <point x="109" y="845"/>
      <point x="208" y="750"/>
      <point x="451" y="662" type="curve"/>
      <point x="451" y="662"/>
      <point x="783" y="552"/>
      <point x="783" y="552" type="curve" smooth="yes"/>
      <point x="867" y="522"/>
      <point x="936" y="477"/>
      <point x="936" y="388" type="curve" smooth="yes"/>
      <point x="936" y="272"/>
      <point x="821" y="224"/>
      <point x="685" y="224" type="curve" smooth="yes"/>
      <point x="560" y="224"/>
      <point x="442" y="264"/>
      <point x="350" y="305" type="curve"/>
      <point x="188.134" y="365.7"/>
      <point x="-9" y="233.337"/>
      <point x="167" y="101" type="curve" smooth="yes"/>
      <point x="280" y="17"/>
      <point x="497" y="-35"/>
    </contour>
    <contour>
      <point x="695" y="0" type="move" name="bot"/>
    </contour>
    <contour>
      <point x="696" y="1438" type="move" name="top"/>
    </contour>
  </outline>
</glyph>
<glyph name="T" format="1">
  <advance width="1238"/>
  <unicode hex="0054"/>
  <outline>
    <contour>
      <point x="620" y="0" type="curve" smooth="yes"/>
      <point x="723" y="0"/>
      <point x="806" y="86"/>
      <point x="806" y="195" type="curve" smooth="yes"/>
      <point x="806" y="1188" type="line"/>
      <point x="1074" y="1188" type="line" smooth="yes"/>
      <point x="1151" y="1188"/>
      <point x="1217" y="1248"/>
      <point x="1217" y="1320" type="curve" smooth="yes"/>
      <point x="1217" y="1393"/>
      <point x="1151" y="1453"/>
      <point x="1074" y="1453" type="curve" smooth="yes"/>
      <point x="161" y="1453" type="line" smooth="yes"/>
      <point x="84" y="1453"/>
      <point x="18" y="1393"/>
      <point x="18" y="1320" type="curve" smooth="yes"/>
      <point x="18" y="1248"/>
      <point x="84" y="1188"/>
      <point x="161" y="1188" type="curve" smooth="yes"/>
      <point x="435" y="1188" type="line"/>
      <point x="435" y="195" type="line" smooth="yes"/>
      <point x="435" y="86"/>
      <point x="517" y="0"/>
    </contour>
    <contour>
      <point x="616" y="0" type="move" name="bot"/>
    </contour>
    <contour>
      <point x="625" y="739" type="move" name="mid"/>
    </contour>
    <contour>
      <point x="643" y="1486" type="move" name="top"/>
    </contour>
  </outline>
</glyph>
<glyph name="V" format="1">
  <advance width="1451"/>
  <unicode hex="0056"/>
  <outline>
    <contour>
      <point x="717" y="0" type="curve"/>
      <point x="919" y="0"/>
      <point x="960" y="100"/>
      <point x="1060" y="380" type="curve" smooth="yes"/>
      <point x="1356" y="1209" type="line" smooth="yes"/>
      <point x="1450" y="1462"/>
      <point x="1115" y="1568"/>
      <point x="1021" y="1286" type="curve" smooth="yes"/>
      <point x="717" y="371" type="line"/>
      <point x="717" y="371"/>
      <point x="717" y="0"/>
    </contour>
    <contour>
      <point x="717" y="0" type="curve"/>
      <point x="717" y="0"/>
      <point x="717" y="371"/>
      <point x="717" y="371" type="curve"/>
      <point x="413" y="1286" type="line" smooth="yes"/>
      <point x="319.102" y="1567.69"/>
      <point x="-16" y="1461.99"/>
      <point x="78" y="1209" type="curve" smooth="yes"/>
      <point x="374" y="380" type="line" smooth="yes"/>
      <point x="474" y="100"/>
      <point x="515" y="0"/>
    </contour>
  </outline>
</glyph>
<glyph name="W" format="1">
  <advance width="2179"/>
  <unicode hex="0057"/>
  <outline>
    <contour>
      <point x="1375" y="193" type="line" smooth="yes"/>
      <point x="1458" y="-94"/>
      <point x="1830" y="-59"/>
      <point x="1881" y="159" type="curve" smooth="yes"/>
      <point x="2136" y="1255" type="line" smooth="yes"/>
      <point x="2185" y="1467"/>
      <point x="1870" y="1570"/>
      <point x="1814" y="1308" type="curve" smooth="yes"/>
      <point x="1612" y="356" type="line"/>
      <point x="1378" y="1176" type="line" smooth="yes"/>
      <point x="1331" y="1342"/>
      <point x="1274" y="1452"/>
      <point x="1107" y="1452" type="curve"/>
      <point x="1107" y="1120" type="line"/>
    </contour>
    <contour>
      <point x="839" y="193" type="curve" smooth="yes"/>
      <point x="1107" y="1120" type="line"/>
      <point x="1107" y="1452" type="line"/>
      <point x="940" y="1452"/>
      <point x="883" y="1342"/>
      <point x="836" y="1176" type="curve" smooth="yes"/>
      <point x="602" y="356" type="line"/>
      <point x="400" y="1308" type="line" smooth="yes"/>
      <point x="344" y="1570"/>
      <point x="29" y="1467"/>
      <point x="78" y="1255" type="curve" smooth="yes"/>
      <point x="333" y="159" type="line" smooth="yes"/>
      <point x="384" y="-59"/>
      <point x="756" y="-94"/>
    </contour>
    <contour>
      <point x="1105" y="1438" type="move" name="top"/>
    </contour>
  </outline>
</glyph>
<glyph name="X" format="1">
  <advance width="1374"/>
  <unicode hex="0058"/>
  <outline>
    <contour>
      <point x="369" y="89" type="curve" smooth="yes"/>
      <point x="725" y="553" type="line"/>
      <point x="884" y="725" type="line"/>
      <point x="1262" y="1211" type="line" smooth="yes"/>
      <point x="1378.32" y="1356.4"/>
      <point x="1149.46" y="1576.18"/>
      <point x="987" y="1350" type="curve" smooth="yes"/>
      <point x="674" y="920" type="line"/>
      <point x="514" y="759" type="line"/>
      <point x="131" y="287" type="line" smooth="yes"/>
      <point x="-42" y="75.0465"/>
      <point x="221.721" y="-103"/>
    </contour>
    <contour>
      <point x="981" y="80" type="line" smooth="yes"/>
      <point x="1145.13" y="-139"/>
      <point x="1400.94" y="73"/>
      <point x="1267" y="246" type="curve" smooth="yes"/>
      <point x="421" y="1370" type="line" smooth="yes"/>
      <point x="269.731" y="1573.88"/>
      <point x="0" y="1385.82"/>
      <point x="149" y="1185" type="curve" smooth="yes"/>
    </contour>
  </outline>
</glyph>
<glyph name="Y" format="1">
  <advance width="1391"/>
  <unicode hex="0059"/>
  <outline>
    <contour>
      <point x="510" y="-64"/>
      <point x="883" y="-64"/>
      <point x="883" y="184" type="curve" smooth="yes"/>
      <point x="883" y="562" type="line"/>
      <point x="1266" y="1199" type="line" smooth="yes"/>
      <point x="1383" y="1393"/>
      <point x="1113" y="1545"/>
      <point x="994" y="1335" type="curve" smooth="yes"/>
      <point x="714" y="840" type="line"/>
      <point x="448" y="1324" type="line" smooth="yes"/>
      <point x="309.008" y="1576.45"/>
      <point x="3.52632" y="1397.74"/>
      <point x="143" y="1169" type="curve" smooth="yes"/>
      <point x="510" y="556" type="line"/>
      <point x="510" y="184" type="line" smooth="yes"/>
    </contour>
    <contour>
      <point x="716" y="1438" type="move" name="top"/>
    </contour>
  </outline>
</glyph>
<glyph name="Z" format="1">
  <advance width="1233"/>
  <unicode hex="005A"/>
  <outline>
    <contour>
      <point x="223" y="0" type="curve" smooth="yes"/>
      <point x="1053" y="0" type="line" smooth="yes"/>
      <point x="1125" y="0"/>
      <point x="1183" y="57"/>
      <point x="1183" y="129" type="curve" smooth="yes"/>
      <point x="1183" y="201"/>
      <point x="1125" y="259"/>
      <point x="1053" y="259" type="curve" smooth="yes"/>
      <point x="514" y="259" type="line"/>
      <point x="1119" y="1180" type="line" smooth="yes"/>
      <point x="1150" y="1227"/>
      <point x="1181" y="1284"/>
      <point x="1181" y="1329" type="curve" smooth="yes"/>
      <point x="1181" y="1421"/>
      <point x="1104" y="1453"/>
      <point x="1012" y="1453" type="curve" smooth="yes"/>
      <point x="219" y="1453" type="line" smooth="yes"/>
      <point x="147" y="1453"/>
      <point x="90" y="1395"/>
      <point x="90" y="1323" type="curve" smooth="yes"/>
      <point x="90" y="1251"/>
      <point x="147" y="1194"/>
      <point x="219" y="1194" type="curve" smooth="yes"/>
      <point x="739" y="1194" type="line"/>
      <point x="138" y="276" type="line"/>
      <point x="103" y="227"/>
      <point x="75" y="166"/>
      <point x="75" y="122" type="curve" smooth="yes"/>
      <point x="75" y="54"/>
      <point x="126" y="0"/>
    </contour>
    <contour>
      <point x="646" y="1438" type="move" name="top"/>
    </contour>
  </outline>
</glyph>
<glyph name="b" format="1">
  <advance width="1280"/>
  <unicode hex="0062"/>
  <outline>
    <contour>
      <point x="766" y="-18" type="curve" smooth="yes"/>
      <point x="1011" y="-18"/>
      <point x="1200" y="167"/>
      <point x="1200" y="505" type="curve" smooth="yes"/>
      <point x="1200" y="847"/>
      <point x="995" y="1017"/>
      <point x="753" y="1017" type="curve" smooth="yes"/>
      <point x="604" y="1017"/>
      <point x="486" y="955"/>
      <point x="435" y="848" type="curve"/>
      <point x="435" y="1257" type="line" smooth="yes"/>
      <point x="435" y="1384"/>
      <point x="388" y="1454"/>
      <point x="269" y="1454" type="curve" smooth="yes"/>
      <point x="157" y="1454"/>
      <point x="116" y="1384"/>
      <point x="116" y="1257" type="curve" smooth="yes"/>
      <point x="116" y="207" type="line" smooth="yes"/>
      <point x="116" y="80"/>
      <point x="166" y="-1"/>
      <point x="278" y="-1" type="curve" smooth="yes"/>
      <point x="382" y="-1"/>
      <point x="434" y="62"/>
      <point x="434" y="149" type="curve" smooth="yes"/>
      <point x="434" y="166" type="line"/>
      <point x="496" y="35"/>
      <point x="621" y="-18"/>
    </contour>
    <contour>
      <point x="672" y="172" type="curve" smooth="yes"/>
      <point x="502" y="172"/>
      <point x="436" y="300"/>
      <point x="436" y="499" type="curve" smooth="yes"/>
      <point x="436" y="705"/>
      <point x="524" y="819"/>
      <point x="667" y="819" type="curve" smooth="yes"/>
      <point x="822" y="819"/>
      <point x="895" y="680"/>
      <point x="895" y="496" type="curve" smooth="yes"/>
      <point x="895" y="349"/>
      <point x="839" y="172"/>
    </contour>
  </outline>
</glyph>
<glyph name="e" format="1">
  <advance width="1153"/>
  <unicode hex="0065"/>
  <outline>
    <contour>
      <point x="621" y="-12" type="curve" smooth="yes"/>
      <point x="844" y="-12"/>
      <point x="959" y="69"/>
      <point x="1030" y="136" type="curve" smooth="yes"/>
      <point x="1112" y="213"/>
      <point x="984" y="361"/>
      <point x="909" y="297" type="curve" smooth="yes"/>
      <point x="849" y="246"/>
      <point x="756" y="201"/>
      <point x="658" y="201" type="curve" smooth="yes"/>
      <point x="482" y="201"/>
      <point x="404" y="292"/>
      <point x="397" y="453" type="curve"/>
      <point x="975" y="453" type="line" smooth="yes"/>
      <point x="1039" y="453"/>
      <point x="1077" y="481"/>
      <point x="1077" y="536" type="curve"/>
      <point x="1074" y="797"/>
      <point x="947" y="1023"/>
      <point x="607" y="1023" type="curve" smooth="yes"/>
      <point x="293" y="1023"/>
      <point x="80" y="797"/>
      <point x="80" y="509" type="curve" smooth="yes"/>
      <point x="80" y="164"/>
      <point x="313" y="-12"/>
    </contour>
    <contour>
      <point x="399" y="597" type="line"/>
      <point x="407" y="732"/>
      <point x="477" y="843"/>
      <point x="611" y="843" type="curve" smooth="yes"/>
      <point x="758" y="843"/>
      <point x="802" y="738"/>
      <point x="810" y="597" type="curve"/>
    </contour>
    <contour>
      <point x="805" y="33" type="move" name="ogonek"/>
    </contour>
    <contour>
      <point x="612" y="1001" type="move" name="top"/>
    </contour>
  </outline>
</glyph>
<glyph name="g" format="1">
  <advance width="1265"/>
  <unicode hex="0067"/>
  <outline>
    <contour>
      <point x="603" y="-441" type="curve" smooth="yes"/>
      <point x="972" y="-441"/>
      <point x="1144" y="-228"/>
      <point x="1144" y="98" type="curve" smooth="yes"/>
      <point x="1144" y="800" type="line" smooth="yes"/>
      <point x="1144" y="932"/>
      <point x="1108" y="1006"/>
      <point x="995" y="1006" type="curve" smooth="yes"/>
      <point x="902" y="1006"/>
      <point x="846" y="957"/>
      <point x="846" y="861" type="curve" smooth="yes"/>
      <point x="846" y="835" type="line"/>
      <point x="795" y="950"/>
      <point x="695" y="1028"/>
      <point x="498" y="1018" type="curve" smooth="yes"/>
      <point x="231" y="1004"/>
      <point x="72" y="790"/>
      <point x="72" y="497" type="curve" smooth="yes"/>
      <point x="72" y="186"/>
      <point x="264" y="13"/>
      <point x="518" y="-2" type="curve" smooth="yes"/>
      <point x="663" y="-11"/>
      <point x="793" y="42"/>
      <point x="842" y="173" type="curve"/>
      <point x="842" y="42" type="line" smooth="yes"/>
      <point x="842" y="-170"/>
      <point x="761" y="-213"/>
      <point x="616" y="-227" type="curve" smooth="yes"/>
      <point x="511" y="-237"/>
      <point x="406" y="-207"/>
      <point x="334" y="-186" type="curve" smooth="yes"/>
      <point x="201" y="-149"/>
      <point x="119" y="-318"/>
      <point x="263" y="-384" type="curve" smooth="yes"/>
      <point x="332" y="-416"/>
      <point x="476" y="-441"/>
    </contour>
    <contour>
      <point x="625" y="199" type="curve"/>
      <point x="488" y="199"/>
      <point x="414" y="302"/>
      <point x="414" y="506" type="curve" smooth="yes"/>
      <point x="414" y="686"/>
      <point x="459" y="829"/>
      <point x="624" y="829" type="curve" smooth="yes"/>
      <point x="792" y="829"/>
      <point x="842" y="699"/>
      <point x="842" y="504" type="curve" smooth="yes"/>
      <point x="842" y="289"/>
      <point x="752" y="202"/>
    </contour>
    <contour>
      <point x="597" y="1001" type="move" name="top"/>
    </contour>
  </outline>
</glyph>
<glyph name="h" format="1">
  <advance width="1239"/>
  <unicode hex="0068"/>
  <outline>
    <contour>
      <point x="277" y="0" type="curve" smooth="yes"/>
      <point x="396" y="0"/>
      <point x="438" y="70"/>
      <point x="438" y="197" type="curve" smooth="yes"/>
      <point x="438" y="587" type="line" smooth="yes"/>
      <point x="438" y="733"/>
      <point x="533" y="825"/>
      <point x="642" y="825" type="curve" smooth="yes"/>
      <point x="734" y="825"/>
      <point x="804" y="760"/>
      <point x="804" y="635" type="curve" smooth="yes"/>
      <point x="804" y="197" type="line" smooth="yes"/>
      <point x="804" y="70"/>
      <point x="850" y="0"/>
      <point x="962" y="0" type="curve" smooth="yes"/>
      <point x="1081" y="0"/>
      <point x="1123" y="70"/>
      <point x="1123" y="197" type="curve" smooth="yes"/>
      <point x="1124" y="649" type="line" smooth="yes"/>
      <point x="1124" y="899"/>
      <point x="969" y="1019"/>
      <point x="797" y="1027" type="curve" smooth="yes"/>
      <point x="625" y="1035"/>
      <point x="505" y="973"/>
      <point x="437" y="859" type="curve"/>
      <point x="437" y="1255" type="line" smooth="yes"/>
      <point x="437" y="1382"/>
      <point x="390" y="1452"/>
      <point x="271" y="1452" type="curve" smooth="yes"/>
      <point x="159" y="1452"/>
      <point x="118" y="1382"/>
      <point x="118" y="1255" type="curve" smooth="yes"/>
      <point x="119" y="197" type="line" smooth="yes"/>
      <point x="119" y="70"/>
      <point x="165" y="0"/>
    </contour>
  </outline>
</glyph>
<glyph name="i" format="1">
  <advance width="564"/>
  <unicode hex="0069"/>
  <outline>
    <contour>
      <point x="287" y="0" type="curve" smooth="yes"/>
      <point x="406" y="0"/>
      <point x="443" y="70"/>
      <point x="443" y="197" type="curve" smooth="yes"/>
      <point x="443" y="809" type="line" smooth="yes"/>
      <point x="443" y="936"/>
      <point x="396" y="1006"/>
      <point x="277" y="1006" type="curve" smooth="yes"/>
      <point x="165" y="1006"/>
      <point x="124" y="936"/>
      <point x="124" y="809" type="curve" smooth="yes"/>
      <point x="124" y="197" type="line" smooth="yes"/>
      <point x="124" y="70"/>
      <point x="167" y="0"/>
    </contour>
    <contour>
      <point x="284" y="1207" type="curve" smooth="yes"/>
      <point x="388" y="1207"/>
      <point x="458" y="1269"/>
      <point x="458" y="1362" type="curve" smooth="yes"/>
      <point x="458" y="1454"/>
      <point x="389" y="1516"/>
      <point x="285" y="1516" type="curve" smooth="yes"/>
      <point x="180" y="1516"/>
      <point x="110" y="1454"/>
      <point x="110" y="1362" type="curve" smooth="yes"/>
      <point x="110" y="1269"/>
      <point x="180" y="1207"/>
    </contour>
  </outline>
</glyph>
<glyph name="k" format="1">
  <advance width="1111"/>
  <unicode hex="006B"/>
  <outline>
    <contour>
      <point x="442" y="509" type="line"/>
      <point x="802" y="63" type="line" smooth="yes"/>
      <point x="927" y="-92"/>
      <point x="1156" y="78"/>
      <point x="1040" y="218" type="curve" smooth="yes"/>
      <point x="760" y="554" type="line"/>
      <point x="988" y="790" type="line" smooth="yes"/>
      <point x="1107" y="913"/>
      <point x="914" y="1112"/>
      <point x="790" y="971" type="curve" smooth="yes"/>
      <point x="442" y="576" type="line"/>
    </contour>
    <contour>
      <point x="276" y="0" type="curve" smooth="yes"/>
      <point x="395" y="0"/>
      <point x="442" y="70"/>
      <point x="442" y="197" type="curve" smooth="yes"/>
      <point x="442" y="1255" type="line" smooth="yes"/>
      <point x="442" y="1382"/>
      <point x="395" y="1452"/>
      <point x="276" y="1452" type="curve" smooth="yes"/>
      <point x="164" y="1452"/>
      <point x="123" y="1382"/>
      <point x="123" y="1255" type="curve" smooth="yes"/>
      <point x="123" y="197" type="line" smooth="yes"/>
      <point x="123" y="70"/>
      <point x="164" y="0"/>
    </contour>
    <contour>
      <point x="579" y="0" type="move" name="bot"/>
    </contour>
  </outline>
</glyph>
<glyph name="l" format="1">
  <advance width="575"/>
  <unicode hex="006C"/>
  <outline>
    <contour>
      <point x="291" y="0" type="curve" smooth="yes"/>
      <point x="410" y="0"/>
      <point x="457" y="70"/>
      <point x="457" y="197" type="curve" smooth="yes"/>
      <point x="457" y="1254" type="line" smooth="yes"/>
      <point x="457" y="1381"/>
      <point x="410" y="1451"/>
      <point x="291" y="1451" type="curve" smooth="yes"/>
      <point x="179" y="1451"/>
      <point x="138" y="1381"/>
      <point x="138" y="1254" type="curve" smooth="yes"/>
      <point x="138" y="197" type="line" smooth="yes"/>
      <point x="138" y="70"/>
      <point x="179" y="0"/>
    </contour>
    <contour>
      <point x="303" y="991" type="move" name="caron.alt"/>
    </contour>
    <contour>
      <point x="289" y="1452" type="move" name="top"/>
    </contour>
    <contour>
      <point x="288" y="693" type="move" name="mid"/>
    </contour>
    <contour>
      <point x="291" y="0" type="move" name="bot"/>
    </contour>
  </outline>
</glyph>
<glyph name="m" format="1">
  <advance width="1919"/>
  <unicode hex="006D"/>
  <outline>
    <contour>
      <point x="274" y="0" type="curve" smooth="yes"/>
      <point x="393" y="0"/>
      <point x="440" y="70"/>
      <point x="440" y="197" type="curve" smooth="yes"/>
      <point x="440" y="611" type="line" smooth="yes"/>
      <point x="440" y="750"/>
      <point x="527" y="825"/>
      <point x="642" y="825" type="curve" smooth="yes"/>
      <point x="739" y="825"/>
      <point x="800" y="753"/>
      <point x="800" y="616" type="curve" smooth="yes"/>
      <point x="800" y="197" type="line" smooth="yes"/>
      <point x="800" y="70"/>
      <point x="845" y="0"/>
      <point x="957" y="0" type="curve" smooth="yes"/>
      <point x="1076" y="0"/>
      <point x="1119" y="70"/>
      <point x="1119" y="197" type="curve" smooth="yes"/>
      <point x="1119" y="588" type="line" smooth="yes"/>
      <point x="1119" y="744"/>
      <point x="1213" y="825"/>
      <point x="1322" y="825" type="curve" smooth="yes"/>
      <point x="1411" y="825"/>
      <point x="1480" y="756"/>
      <point x="1480" y="635" type="curve" smooth="yes"/>
      <point x="1480" y="197" type="line" smooth="yes"/>
      <point x="1480" y="70"/>
      <point x="1527" y="0"/>
      <point x="1639" y="0" type="curve" smooth="yes"/>
      <point x="1758" y="0"/>
      <point x="1799" y="70"/>
      <point x="1799" y="197" type="curve" smooth="yes"/>
      <point x="1799" y="649" type="line" smooth="yes"/>
      <point x="1799" y="901"/>
      <point x="1657" y="1023"/>
      <point x="1466" y="1023" type="curve" smooth="yes"/>
      <point x="1322" y="1023"/>
      <point x="1178" y="985"/>
      <point x="1092" y="807" type="curve"/>
      <point x="1038" y="979"/>
      <point x="917" y="1023"/>
      <point x="778" y="1023" type="curve" smooth="yes"/>
      <point x="620" y="1023"/>
      <point x="489" y="962"/>
      <point x="440" y="825" type="curve"/>
      <point x="440" y="851" type="line" smooth="yes"/>
      <point x="440" y="952"/>
      <point x="383" y="1006"/>
      <point x="278" y="1006" type="curve" smooth="yes"/>
      <point x="166" y="1006"/>
      <point x="121" y="944"/>
      <point x="121" y="817" type="curve" smooth="yes"/>
      <point x="121" y="197" type="line" smooth="yes"/>
      <point x="121" y="70"/>
      <point x="162" y="0"/>
    </contour>
  </outline>
</glyph>
<glyph name="n" format="1">
  <advance width="1230"/>
  <unicode hex="006E"/>
  <outline>
    <contour>
      <point x="271" y="0" type="curve" smooth="yes"/>
      <point x="390" y="0"/>
      <point x="437" y="70"/>
      <point x="437" y="197" type="curve" smooth="yes"/>
      <point x="437" y="587" type="line" smooth="yes"/>
      <point x="437" y="728"/>
      <point x="528" y="825"/>
      <point x="641" y="825" type="curve" smooth="yes"/>
      <point x="732" y="825"/>
      <point x="803" y="762"/>
      <point x="803" y="635" type="curve" smooth="yes"/>
      <point x="803" y="197" type="line" smooth="yes"/>
      <point x="803" y="70"/>
      <point x="844" y="0"/>
      <point x="956" y="0" type="curve" smooth="yes"/>
      <point x="1075" y="0"/>
      <point x="1122" y="70"/>
      <point x="1122" y="197" type="curve" smooth="yes"/>
      <point x="1122" y="639" type="line" smooth="yes"/>
      <point x="1122" y="891"/>
      <point x="982" y="1025"/>
      <point x="789" y="1025" type="curve" smooth="yes"/>
      <point x="614" y="1025"/>
      <point x="494" y="960"/>
      <point x="436" y="831" type="curve"/>
      <point x="436" y="842" type="line" smooth="yes"/>
      <point x="436" y="950"/>
      <point x="389" y="1006"/>
      <point x="280" y="1006" type="curve" smooth="yes"/>
      <point x="168" y="1006"/>
      <point x="118" y="953"/>
      <point x="118" y="843" type="curve" smooth="yes"/>
      <point x="118" y="197" type="line" smooth="yes"/>
      <point x="118" y="70"/>
      <point x="159" y="0"/>
    </contour>
    <contour>
      <point x="627" y="0" type="move" name="bot"/>
    </contour>
    <contour>
      <point x="642" y="991" type="move" name="top"/>
    </contour>
    <contour>
      <point x="238" y="991" type="move" name="top.2"/>
    </contour>
  </outline>
</glyph>
<glyph name="s" format="1">
  <advance width="997.004"/>
  <unicode hex="0073"/>
  <outline>
    <contour>
      <point x="504" y="-12" type="curve" smooth="yes"/>
      <point x="758" y="-22"/>
      <point x="954" y="90"/>
      <point x="949" y="318" type="curve" smooth="yes"/>
      <point x="945" y="499"/>
      <point x="820" y="568"/>
      <point x="613" y="621" type="curve" smooth="yes"/>
      <point x="476" y="656" type="line" smooth="yes"/>
      <point x="396" y="676"/>
      <point x="363" y="699"/>
      <point x="363" y="751" type="curve" smooth="yes"/>
      <point x="363" y="820"/>
      <point x="480" y="833"/>
      <point x="545" y="826" type="curve" smooth="yes"/>
      <point x="639" y="816"/>
      <point x="707" y="791"/>
      <point x="748" y="776" type="curve" smooth="yes"/>
      <point x="883" y="727"/>
      <point x="939" y="898"/>
      <point x="817" y="953" type="curve" smooth="yes"/>
      <point x="749" y="984"/>
      <point x="675" y="1018"/>
      <point x="544" y="1025" type="curve" smooth="yes"/>
      <point x="262" y="1040"/>
      <point x="81" y="929"/>
      <point x="81" y="734" type="curve" smooth="yes"/>
      <point x="81" y="534"/>
      <point x="202" y="486"/>
      <point x="430" y="423" type="curve" smooth="yes"/>
      <point x="568" y="385" type="line" smooth="yes"/>
      <point x="646" y="364"/>
      <point x="686" y="327"/>
      <point x="686" y="290" type="curve" smooth="yes"/>
      <point x="686" y="195"/>
      <point x="561" y="182"/>
      <point x="480" y="186" type="curve" smooth="yes"/>
      <point x="350" y="193"/>
      <point x="283" y="244"/>
      <point x="238" y="268" type="curve" smooth="yes"/>
      <point x="114" y="334"/>
      <point x="29" y="174"/>
      <point x="124" y="108" type="curve" smooth="yes"/>
      <point x="210" y="49"/>
      <point x="320" y="-5"/>
    </contour>
    <contour>
      <point x="502" y="0" type="move" name="bot"/>
    </contour>
    <contour>
      <point x="525" y="1006" type="move" name="top"/>
    </contour>
  </outline>
</glyph>
<glyph name="t" format="1">
  <advance width="824.994"/>
  <unicode hex="0074"/>
  <outline>
    <contour>
      <point x="504" y="-12" type="curve"/>
      <point x="617" y="-12"/>
      <point x="690" y="-4"/>
      <point x="736" y="12" type="curve" smooth="yes"/>
      <point x="826" y="44"/>
      <point x="808" y="217"/>
      <point x="709" y="212" type="curve" smooth="yes"/>
      <point x="652" y="209" type="line" smooth="yes"/>
      <point x="544" y="203"/>
      <point x="511" y="263"/>
      <point x="511" y="424" type="curve" smooth="yes"/>
      <point x="511" y="802" type="line"/>
      <point x="626" y="802" type="line" smooth="yes"/>
      <point x="703" y="802"/>
      <point x="738" y="836"/>
      <point x="738" y="904" type="curve" smooth="yes"/>
      <point x="738" y="977"/>
      <point x="700" y="1010"/>
      <point x="632" y="1010" type="curve" smooth="yes"/>
      <point x="511" y="1010" type="line"/>
      <point x="511" y="1205" type="line" smooth="yes"/>
      <point x="511" y="1326"/>
      <point x="474" y="1388"/>
      <point x="386" y="1388" type="curve" smooth="yes"/>
      <point x="267" y="1388"/>
      <point x="242" y="1296"/>
      <point x="234" y="1217" type="curve" smooth="yes"/>
      <point x="212" y="1010" type="line"/>
      <point x="126" y="1010" type="line" smooth="yes"/>
      <point x="49" y="1010"/>
      <point x="19" y="970"/>
      <point x="19" y="910" type="curve" smooth="yes"/>
      <point x="19" y="834"/>
      <point x="58" y="802"/>
      <point x="130" y="802" type="curve" smooth="yes"/>
      <point x="191" y="802" type="line"/>
      <point x="191" y="356" type="line" smooth="yes"/>
      <point x="191" y="88"/>
      <point x="317" y="-9"/>
    </contour>
    <contour>
      <point x="488" y="-1" type="move" name="bot"/>
    </contour>
  </outline>
</glyph>
<glyph name="u" format="1">
  <advance width="1230"/>
  <unicode hex="0075"/>
  <outline>
    <contour>
      <point x="463" y="-12" type="curve" smooth="yes"/>
      <point x="638" y="-12"/>
      <point x="736" y="53"/>
      <point x="794" y="182" type="curve"/>
      <point x="794" y="164" type="line" smooth="yes"/>
      <point x="794" y="56"/>
      <point x="841" y="0"/>
      <point x="950" y="0" type="curve" smooth="yes"/>
      <point x="1062" y="0"/>
      <point x="1112" y="53"/>
      <point x="1112" y="163" type="curve" smooth="yes"/>
      <point x="1112" y="809" type="line" smooth="yes"/>
      <point x="1112" y="936"/>
      <point x="1071" y="1006"/>
      <point x="959" y="1006" type="curve" smooth="yes"/>
      <point x="840" y="1006"/>
      <point x="793" y="936"/>
      <point x="793" y="809" type="curve" smooth="yes"/>
      <point x="793" y="426" type="line" smooth="yes"/>
      <point x="793" y="285"/>
      <point x="702" y="188"/>
      <point x="589" y="188" type="curve" smooth="yes"/>
      <point x="498" y="188"/>
      <point x="427" y="251"/>
      <point x="427" y="378" type="curve" smooth="yes"/>
      <point x="427" y="809" type="line" smooth="yes"/>
      <point x="427" y="936"/>
      <point x="386" y="1006"/>
      <point x="274" y="1006" type="curve" smooth="yes"/>
      <point x="155" y="1006"/>
      <point x="108" y="936"/>
      <point x="108" y="809" type="curve" smooth="yes"/>
      <point x="108" y="374" type="line" smooth="yes"/>
      <point x="108" y="122"/>
      <point x="270" y="-12"/>
    </contour>
    <contour>
      <point x="961" y="22" type="move" name="ogonek"/>
    </contour>
    <contour>
      <point x="608" y="991" type="move" name="top"/>
    </contour>
  </outline>
</glyph>
<glyph name="v" format="1">
  <advance width="1083"/>
  <unicode hex="0076"/>
  <outline>
    <contour>
      <point x="542" y="-12" type="line"/>
      <point x="690" y="-12"/>
      <point x="720" y="39"/>
      <point x="809" y="255" type="curve" smooth="yes"/>
      <point x="1034" y="803" type="line" smooth="yes"/>
      <point x="1118" y="1007"/>
      <point x="838" y="1109"/>
      <point x="760" y="899" type="curve" smooth="yes"/>
      <point x="542" y="310" type="line"/>
    </contour>
    <contour>
      <point x="542" y="-12" type="curve"/>
      <point x="542" y="310" type="line"/>
      <point x="323" y="899" type="line" smooth="yes"/>
      <point x="245" y="1109"/>
      <point x="-33" y="1007"/>
      <point x="50" y="803" type="curve" smooth="yes"/>
      <point x="274" y="255" type="line" smooth="yes"/>
      <point x="363" y="38"/>
      <point x="394" y="-12"/>
    </contour>
  </outline>
</glyph>
<glyph name="w" format="1">
  <advance width="1748"/>
  <unicode hex="0077"/>
  <outline>
    <contour>
      <point x="1281" y="0" type="curve" smooth="yes"/>
      <point x="1393" y="0"/>
      <point x="1444" y="77"/>
      <point x="1498" y="258" type="curve" smooth="yes"/>
      <point x="1666" y="821" type="line" smooth="yes"/>
      <point x="1724" y="1014"/>
      <point x="1456" y="1088"/>
      <point x="1397" y="885" type="curve" smooth="yes"/>
      <point x="1237" y="301" type="line"/>
      <point x="1083" y="804" type="line" smooth="yes"/>
      <point x="1045" y="927"/>
      <point x="1023" y="1010"/>
      <point x="882" y="1010" type="curve"/>
      <point x="882" y="747" type="line"/>
      <point x="1029" y="266" type="line" smooth="yes"/>
      <point x="1098" y="41"/>
      <point x="1142" y="0"/>
    </contour>
    <contour>
      <point x="483" y="0" type="curve" smooth="yes"/>
      <point x="622" y="0"/>
      <point x="666" y="41"/>
      <point x="735" y="266" type="curve" smooth="yes"/>
      <point x="882" y="747" type="line"/>
      <point x="882" y="1010" type="line"/>
      <point x="741" y="1010"/>
      <point x="719" y="927"/>
      <point x="681" y="804" type="curve" smooth="yes"/>
      <point x="527" y="301" type="line"/>
      <point x="367" y="885" type="line" smooth="yes"/>
      <point x="311" y="1089"/>
      <point x="40" y="1014"/>
      <point x="98" y="821" type="curve" smooth="yes"/>
      <point x="266" y="258" type="line" smooth="yes"/>
      <point x="320" y="77"/>
      <point x="371" y="0"/>
    </contour>
    <contour>
      <point x="887" y="1013" type="move" name="top"/>
    </contour>
  </outline>
</glyph>
<glyph name="y" format="1">
  <advance width="1121"/>
  <unicode hex="0079"/>
  <outline>
    <contour>
      <point x="511" y="12" type="line"/>
      <point x="668" y="299" type="line"/>
      <point x="335" y="927" type="line" smooth="yes"/>
      <point x="248" y="1092"/>
      <point x="-13" y="974"/>
      <point x="79" y="805" type="curve" smooth="yes"/>
    </contour>
    <contour>
      <point x="495" y="-345" type="curve" smooth="yes"/>
      <point x="1084" y="810" type="line" smooth="yes"/>
      <point x="1179" y="996"/>
      <point x="930" y="1108"/>
      <point x="833" y="919" type="curve" smooth="yes"/>
      <point x="248" y="-224" type="line" smooth="yes"/>
      <point x="158" y="-399"/>
      <point x="405" y="-521"/>
    </contour>
    <contour>
      <point x="589" y="1030" type="move" name="top"/>
    </contour>
  </outline>
</glyph>
<glyph name="brokenbar" format="1">
  <advance width="455"/>
  <unicode hex="00A6"/>
  <outline>
    <contour>
      <point x="231" y="-179" type="curve" smooth="yes"/>
      <point x="321" y="-179"/>
      <point x="347" y="-108"/>
      <point x="347" y="-33" type="curve" smooth="yes"/>
      <point x="347" y="502" type="line" smooth="yes"/>
      <point x="347" y="592"/>
      <point x="310" y="650"/>
      <point x="232" y="650" type="curve" smooth="yes"/>
      <point x="164" y="650"/>
      <point x="116" y="603"/>
      <point x="116" y="535" type="curve" smooth="yes"/>
      <point x="116" y="-33" type="line" smooth="yes"/>
      <point x="116" y="-124"/>
      <point x="151" y="-179"/>
    </contour>
    <contour>
      <point x="231" y="844" type="curve" smooth="yes"/>
      <point x="320" y="844"/>
      <point x="347" y="915"/>
      <point x="347" y="990" type="curve" smooth="yes"/>
      <point x="347" y="1508" type="line" smooth="yes"/>
      <point x="347" y="1594"/>
      <point x="310" y="1653"/>
      <point x="232" y="1653" type="curve" smooth="yes"/>
      <point x="166" y="1653"/>
      <point x="116" y="1610"/>
      <point x="116" y="1538" type="curve" smooth="yes"/>
      <point x="116" y="990" type="line" smooth="yes"/>
      <point x="116" y="900"/>
      <point x="151" y="844"/>
    </contour>
  </outline>
</glyph>
<glyph name="dieresis" format="1">
  <advance width="569"/>
  <unicode hex="00A8"/>
  <outline>
    <contour>
      <point x="55" y="1171" type="curve" smooth="yes"/>
      <point x="134" y="1171"/>
      <point x="203" y="1233"/>
      <point x="203" y="1314" type="curve" smooth="yes"/>
      <point x="203" y="1395"/>
      <point x="134" y="1458"/>
      <point x="55" y="1458" type="curve" smooth="yes"/>
      <point x="-28" y="1458"/>
      <point x="-94" y="1392"/>
      <point x="-94" y="1314" type="curve" smooth="yes"/>
      <point x="-94" y="1229"/>
      <point x="-21" y="1171"/>
    </contour>
    <contour>
      <point x="515" y="1171" type="curve" smooth="yes"/>
      <point x="594" y="1171"/>
      <point x="663" y="1233"/>
      <point x="663" y="1314" type="curve" smooth="yes"/>
      <point x="663" y="1397"/>
      <point x="591" y="1458"/>
      <point x="515" y="1458" type="curve" smooth="yes"/>
      <point x="429" y="1458"/>
      <point x="366" y="1390"/>
      <point x="366" y="1314" type="curve" smooth="yes"/>
      <point x="366" y="1229"/>
      <point x="438" y="1171"/>
    </contour>
    <contour>
      <point x="287" y="1040" type="move" name="_top"/>
    </contour>
  </outline>
</glyph>
<glyph name="ordfeminine" format="1">
  <advance width="1123"/>
  <unicode hex="00AA"/>
  <outline>
    <contour>
      <point x="366" y="739" type="curve" smooth="yes"/>
      <point x="464" y="739"/>
      <point x="577" y="779"/>
      <point x="617" y="888" type="curve"/>
      <point x="618" y="869" type="line"/>
      <point x="618" y="790"/>
      <point x="662" y="756"/>
      <point x="719" y="756" type="curve" smooth="yes"/>
      <point x="811" y="756"/>
      <point x="820" y="829"/>
      <point x="820" y="905" type="curve" smooth="yes"/>
      <point x="820" y="1200" type="line" smooth="yes"/>
      <point x="820" y="1435"/>
      <point x="689" y="1514"/>
      <point x="501" y="1514" type="curve" smooth="yes"/>
      <point x="341" y="1514"/>
      <point x="222" y="1480"/>
      <point x="193" y="1392" type="curve" smooth="yes"/>
      <point x="190" y="1384"/>
      <point x="188" y="1377"/>
      <point x="188" y="1370" type="curve" smooth="yes"/>
      <point x="188" y="1337"/>
      <point x="214" y="1311"/>
      <point x="249" y="1311" type="curve" smooth="yes"/>
      <point x="253" y="1311"/>
      <point x="257" y="1312"/>
      <point x="262" y="1313" type="curve" smooth="yes"/>
      <point x="329" y="1332"/>
      <point x="390" y="1360"/>
      <point x="487" y="1360" type="curve" smooth="yes"/>
      <point x="563" y="1360"/>
      <point x="611" y="1330"/>
      <point x="611" y="1246" type="curve" smooth="yes"/>
      <point x="611" y="1205" type="line"/>
      <point x="590" y="1206"/>
      <point x="562" y="1206"/>
      <point x="543" y="1206" type="curve" smooth="yes"/>
      <point x="268" y="1202"/>
      <point x="125" y="1129"/>
      <point x="125" y="956" type="curve" smooth="yes"/>
      <point x="125" y="816"/>
      <point x="233" y="739"/>
    </contour>
    <contour>
      <point x="451" y="860" type="curve"/>
      <point x="379" y="863"/>
      <point x="329" y="900"/>
      <point x="329" y="973" type="curve" smooth="yes"/>
      <point x="329" y="1092"/>
      <point x="472" y="1098"/>
      <point x="611" y="1098" type="curve"/>
      <point x="611" y="1050" type="line"/>
      <point x="608" y="930"/>
      <point x="544" y="861"/>
    </contour>
  </outline>
</glyph>
<glyph name="plusminus" format="1">
  <advance width="1287"/>
  <unicode hex="00B1"/>
  <outline>
    <contour>
      <point x="642" y="268" type="curve" smooth="yes"/>
      <point x="694" y="268"/>
      <point x="746" y="304"/>
      <point x="746" y="368" type="curve" smooth="yes"/>
      <point x="746" y="537" type="line"/>
      <point x="1030" y="537" type="line" smooth="yes"/>
      <point x="1107" y="537"/>
      <point x="1157" y="570"/>
      <point x="1157" y="639" type="curve" smooth="yes"/>
      <point x="1157" y="715"/>
      <point x="1097" y="740"/>
      <point x="1030" y="740" type="curve" smooth="yes"/>
      <point x="746" y="740" type="line"/>
      <point x="746" y="872" type="line" smooth="yes"/>
      <point x="746" y="960"/>
      <point x="715" y="1011"/>
      <point x="643" y="1011" type="curve" smooth="yes"/>
      <point x="557" y="1011"/>
      <point x="540" y="941"/>
      <point x="540" y="872" type="curve" smooth="yes"/>
      <point x="540" y="740" type="line"/>
      <point x="270" y="740" type="line" smooth="yes"/>
      <point x="177" y="740"/>
      <point x="131" y="706"/>
      <point x="131" y="639" type="curve" smooth="yes"/>
      <point x="131" y="562"/>
      <point x="189" y="537"/>
      <point x="257" y="537" type="curve" smooth="yes"/>
      <point x="540" y="537" type="line"/>
      <point x="540" y="407" type="line" smooth="yes"/>
      <point x="540" y="315"/>
      <point x="570" y="268"/>
    </contour>
    <contour>
      <point x="251" y="0" type="curve" smooth="yes"/>
      <point x="1016" y="0" type="line" smooth="yes"/>
      <point x="1104" y="0"/>
      <point x="1157" y="29"/>
      <point x="1157" y="101" type="curve" smooth="yes"/>
      <point x="1157" y="156"/>
      <point x="1120" y="202"/>
      <point x="1056" y="202" type="curve" smooth="yes"/>
      <point x="271" y="202" type="line" smooth="yes"/>
      <point x="178" y="202"/>
      <point x="131" y="168"/>
      <point x="131" y="101" type="curve" smooth="yes"/>
      <point x="131" y="27"/>
      <point x="182" y="0"/>
    </contour>
  </outline>
</glyph>
<glyph name="mu" format="1">
  <advance width="1238"/>
  <unicode hex="00B5"/>
  <outline>
    <contour>
      <point x="270" y="-314" type="curve" smooth="yes"/>
      <point x="390" y="-314"/>
      <point x="436" y="-211"/>
      <point x="436" y="-90" type="curve" smooth="yes"/>
      <point x="436" y="32" type="line"/>
      <point x="460" y="24"/>
      <point x="486" y="20"/>
      <point x="513" y="20" type="curve" smooth="yes"/>
      <point x="628" y="20"/>
      <point x="754" y="82"/>
      <point x="802" y="201" type="curve"/>
      <point x="802" y="186"/>
      <point x="803" y="172"/>
      <point x="804" y="158" type="curve" smooth="yes"/>
      <point x="815" y="54"/>
      <point x="869" y="3"/>
      <point x="964" y="3" type="curve" smooth="yes"/>
      <point x="1108" y="3"/>
      <point x="1122" y="115"/>
      <point x="1122" y="251" type="curve" smooth="yes"/>
      <point x="1122" y="816" type="line" smooth="yes"/>
      <point x="1122" y="937"/>
      <point x="1074" y="1005"/>
      <point x="966" y="1005" type="curve" smooth="yes"/>
      <point x="841" y="1005"/>
      <point x="802" y="899"/>
      <point x="802" y="779" type="curve" smooth="yes"/>
      <point x="802" y="382" type="line"/>
      <point x="794" y="239"/>
      <point x="703" y="177"/>
      <point x="598" y="177" type="curve" smooth="yes"/>
      <point x="483" y="177"/>
      <point x="436" y="256"/>
      <point x="436" y="385" type="curve" smooth="yes"/>
      <point x="436" y="779" type="line" smooth="yes"/>
      <point x="436" y="934"/>
      <point x="381" y="1005"/>
      <point x="272" y="1005" type="curve" smooth="yes"/>
      <point x="188" y="1005"/>
      <point x="117" y="947"/>
      <point x="117" y="854" type="curve" smooth="yes"/>
      <point x="117" y="-120" type="line" smooth="yes"/>
      <point x="117" y="-247"/>
      <point x="162" y="-314"/>
    </contour>
  </outline>
</glyph>
<glyph name="periodcentered" format="1">
  <advance width="649"/>
  <unicode hex="00B7"/>
  <outline>
    <contour>
      <point x="324" y="347" type="curve" smooth="yes"/>
      <point x="425" y="347"/>
      <point x="499" y="426"/>
      <point x="499" y="517" type="curve" smooth="yes"/>
      <point x="499" y="613"/>
      <point x="420" y="686"/>
      <point x="324" y="686" type="curve" smooth="yes"/>
      <point x="225" y="686"/>
      <point x="150" y="609"/>
      <point x="150" y="517" type="curve" smooth="yes"/>
      <point x="150" y="424"/>
      <point x="223" y="347"/>
    </contour>
    <contour>
      <point x="-135" y="513" type="move" name="_mid"/>
    </contour>
  </outline>
</glyph>
<glyph name="guillemotright" format="1">
  <advance width="1238"/>
  <unicode hex="00BB"/>
  <outline>
    <contour>
      <point x="249" y="5" type="curve" smooth="yes"/>
      <point x="302" y="5"/>
      <point x="342" y="43"/>
      <point x="386" y="115" type="curve"/>
      <point x="628" y="529" type="line"/>
      <point x="386" y="942" type="line" smooth="yes"/>
      <point x="343" y="1014"/>
      <point x="300" y="1051"/>
      <point x="246" y="1051" type="curve" smooth="yes"/>
      <point x="183" y="1051"/>
      <point x="131" y="1009"/>
      <point x="131" y="947" type="curve" smooth="yes"/>
      <point x="131" y="923"/>
      <point x="142" y="900"/>
      <point x="153" y="877" type="curve" smooth="yes"/>
      <point x="309" y="529" type="line"/>
      <point x="153" y="180" type="line" smooth="yes"/>
      <point x="142" y="156"/>
      <point x="131" y="132"/>
      <point x="131" y="109" type="curve" smooth="yes"/>
      <point x="131" y="42"/>
      <point x="189" y="5"/>
    </contour>
    <contour>
      <point x="750" y="5" type="curve" smooth="yes"/>
      <point x="805" y="5"/>
      <point x="843" y="43"/>
      <point x="887" y="115" type="curve"/>
      <point x="1129" y="529" type="line"/>
      <point x="887" y="942" type="line"/>
      <point x="843" y="1014"/>
      <point x="802" y="1051"/>
      <point x="747" y="1051" type="curve" smooth="yes"/>
      <point x="686" y="1051"/>
      <point x="631" y="1009"/>
      <point x="631" y="949" type="curve" smooth="yes"/>
      <point x="631" y="925"/>
      <point x="644" y="900"/>
      <point x="655" y="875" type="curve" smooth="yes"/>
      <point x="811" y="529" type="line"/>
      <point x="655" y="182" type="line" smooth="yes"/>
      <point x="644" y="158"/>
      <point x="633" y="132"/>
      <point x="633" y="110" type="curve" smooth="yes"/>
      <point x="633" y="44"/>
      <point x="688" y="5"/>
    </contour>
  </outline>
</glyph>
<glyph name="Oslash" format="1">
  <advance width="1612"/>
  <unicode hex="00D8"/>
  <outline>
    <contour>
      <point x="316" y="-221" type="curve" smooth="yes"/>
      <point x="359" y="-221"/>
      <point x="381" y="-185"/>
      <point x="409" y="-140" type="curve" smooth="yes"/>
      <point x="1413" y="1461" type="line" smooth="yes"/>
      <point x="1430" y="1488"/>
      <point x="1443" y="1519"/>
      <point x="1443" y="1547" type="curve" smooth="yes"/>
      <point x="1443" y="1598"/>
      <point x="1398" y="1634"/>
      <point x="1350" y="1634" type="curve" smooth="yes"/>
      <point x="1317" y="1634"/>
      <point x="1289" y="1619"/>
      <point x="1269" y="1586" type="curve" smooth="yes"/>
      <point x="252" y="-49" type="line" smooth="yes"/>
      <point x="235" y="-76"/>
      <point x="223" y="-107"/>
      <point x="223" y="-134" type="curve" smooth="yes"/>
      <point x="223" y="-189"/>
      <point x="267" y="-221"/>
    </contour>
    <component base="O"/>
  </outline>
</glyph>
<glyph name="Hbar" format="1">
  <advance width="1558"/>
  <unicode hex="0126"/>
  <outline>
    <contour>
      <point x="101" y="1005" type="curve"/>
      <point x="1456" y="1005" type="line"/>
      <point x="1505" y="1005"/>
      <point x="1531" y="1039"/>
      <point x="1531" y="1075" type="curve" smooth="yes"/>
      <point x="1531" y="1112"/>
      <point x="1507" y="1146"/>
      <point x="1456" y="1146" type="curve" smooth="yes"/>
      <point x="101" y="1146" type="line" smooth="yes"/>
      <point x="52" y="1146"/>
      <point x="27" y="1112"/>
      <point x="27" y="1075" type="curve" smooth="yes"/>
      <point x="27" y="1039"/>
      <point x="52" y="1005"/>
    </contour>
    <component base="H"/>
  </outline>
</glyph>
<glyph name="Ldot" format="1">
  <advance width="1155"/>
  <unicode hex="013F"/>
  <outline>
    <component base="periodcentered" xOffset="545" yOffset="393"/>
    <component base="L"/>
    <contour>
      <point x="674" y="0" type="move" name="bot"/>
    </contour>
    <contour>
      <point x="646" y="1438" type="move" name="top"/>
    </contour>
  </outline>
</glyph>
<glyph name="Lslash" format="1">
  <advance width="1197"/>
  <unicode hex="0141"/>
  <outline>
    <contour>
      <point x="67" y="563" type="curve" smooth="yes"/>
      <point x="774" y="802" type="line" smooth="yes"/>
      <point x="905" y="846"/>
      <point x="825" y="1026"/>
      <point x="712" y="989" type="curve" smooth="yes"/>
      <point x="10" y="759" type="line" smooth="yes"/>
      <point x="-122" y="716"/>
      <point x="-52" y="523"/>
    </contour>
    <component base="L"/>
  </outline>
</glyph>
<glyph name="lslash" format="1">
  <advance width="554"/>
  <unicode hex="0142"/>
  <outline>
    <contour>
      <point x="585" y="798" type="line"/>
      <point x="647" y="822"/>
      <point x="689" y="881"/>
      <point x="689" y="923" type="curve" smooth="yes"/>
      <point x="689" y="970"/>
      <point x="655" y="1023"/>
      <point x="601" y="1023" type="curve" smooth="yes"/>
      <point x="577" y="1023"/>
      <point x="557" y="1012"/>
      <point x="538" y="1001" type="curve"/>
      <point x="-38" y="745" type="line"/>
      <point x="-81" y="728"/>
      <point x="-98" y="693"/>
      <point x="-98" y="657" type="curve" smooth="yes"/>
      <point x="-98" y="598"/>
      <point x="-53" y="549"/>
      <point x="3" y="549" type="curve" smooth="yes"/>
      <point x="24" y="549"/>
      <point x="45" y="561"/>
      <point x="64" y="570" type="curve"/>
    </contour>
    <component base="l"/>
  </outline>
</glyph>
<glyph name="dotaccent" format="1">
  <advance width="649"/>
  <unicode hex="02D9"/>
  <outline>
    <contour>
      <point x="337" y="1200" type="curve" smooth="yes"/>
      <point x="434" y="1200"/>
      <point x="507" y="1274"/>
      <point x="507" y="1365" type="curve" smooth="yes"/>
      <point x="507" y="1465"/>
      <point x="422" y="1528"/>
      <point x="337" y="1528" type="curve" smooth="yes"/>
      <point x="239" y="1528"/>
      <point x="169" y="1453"/>
      <point x="169" y="1365" type="curve" smooth="yes"/>
      <point x="169" y="1270"/>
      <point x="244" y="1200"/>
    </contour>
    <contour>
      <point x="337" y="1040" type="move" name="_top"/>
    </contour>
  </outline>
</glyph>
<glyph name="commaturnedabovecomb" format="1">
  <advance width="600"/>
  <unicode hex="0312"/>
  <outline>
    <contour>
      <point x="189" y="1196" type="curve"/>
      <point x="381" y="1196" type="line"/>
      <point x="413" y="1197"/>
      <point x="446" y="1205"/>
      <point x="454" y="1252" type="curve" smooth="yes"/>
      <point x="538" y="1755" type="line" smooth="yes"/>
      <point x="540" y="1767"/>
      <point x="542" y="1797"/>
      <point x="514" y="1798" type="curve"/>
      <point x="392" y="1798" type="line"/>
      <point x="363" y="1799"/>
      <point x="348" y="1787"/>
      <point x="336" y="1755" type="curve" smooth="yes"/>
      <point x="155" y="1252" type="line" smooth="yes"/>
      <point x="150" y="1238"/>
      <point x="147" y="1199"/>
    </contour>
    <contour>
      <point x="296" y="991" type="move" name="_top"/>
    </contour>
  </outline>
</glyph>
<glyph name="Sigma" format="1">
  <advance width="1437.754"/>
  <unicode hex="03A3"/>
  <outline>
    <contour>
      <point x="419" y="-254" type="curve" smooth="yes"/>
      <point x="1163" y="-253" type="line" smooth="yes"/>
      <point x="1354" y="-253"/>
      <point x="1358" y="60"/>
      <point x="1163" y="60" type="curve" smooth="yes"/>
      <point x="500" y="60" type="line"/>
      <point x="910" y="425" type="line" smooth="yes"/>
      <point x="1033" y="535"/>
      <point x="1061" y="654"/>
      <point x="910" y="785" type="curve" smooth="yes"/>
      <point x="500" y="1141" type="line"/>
      <point x="1163" y="1140" type="line" smooth="yes"/>
      <point x="1358" y="1140"/>
      <point x="1354" y="1453"/>
      <point x="1163" y="1453" type="curve" smooth="yes"/>
      <point x="419" y="1453" type="line" smooth="yes"/>
      <point x="159" y="1453"/>
      <point x="39" y="1226"/>
      <point x="271" y="1011" type="curve" smooth="yes"/>
      <point x="715" y="600" type="line"/>
      <point x="271" y="179" type="line" smooth="yes"/>
      <point x="80" y="-3"/>
      <point x="159" y="-254"/>
    </contour>
  </outline>
</glyph>
<glyph name="pi" format="1">
  <advance width="1383"/>
  <unicode hex="03C0"/>
  <outline>
    <contour>
      <point x="364" y="-113"/>
      <point x="434" y="59" type="curve" smooth="yes"/>
      <point x="471" y="150"/>
      <point x="583" y="499"/>
      <point x="583" y="864" type="curve"/>
      <point x="847" y="864" type="line"/>
      <point x="847" y="649" type="line" smooth="yes"/>
      <point x="847" y="156"/>
      <point x="860" y="-68"/>
      <point x="1088" y="-36" type="curve" smooth="yes"/>
      <point x="1345" y="0"/>
      <point x="1136" y="133"/>
      <point x="1126" y="623" type="curve" smooth="yes"/>
      <point x="1121" y="864" type="line"/>
      <point x="1209" y="864" type="line" smooth="yes"/>
      <point x="1281" y="864"/>
      <point x="1329" y="906"/>
      <point x="1329" y="986" type="curve" smooth="yes"/>
      <point x="1329" y="1070"/>
      <point x="1274" y="1098"/>
      <point x="1210" y="1098" type="curve" smooth="yes"/>
      <point x="201" y="1098" type="line" smooth="yes"/>
      <point x="124" y="1098"/>
      <point x="83" y="1045"/>
      <point x="83" y="985" type="curve" smooth="yes"/>
      <point x="83" y="902"/>
      <point x="141" y="864"/>
      <point x="217" y="864" type="curve" smooth="yes"/>
      <point x="310" y="864" type="line"/>
      <point x="310" y="485"/>
      <point x="190" y="213"/>
      <point x="151" y="101" type="curve" smooth="yes"/>
      <point x="106" y="-27"/>
    </contour>
  </outline>
</glyph>
<glyph name="emdash" format="1">
  <advance width="2048"/>
  <unicode hex="2014"/>
  <outline>
    <contour>
      <point x="108" y="417" type="curve" smooth="yes"/>
      <point x="1863" y="417" type="line" smooth="yes"/>
      <point x="1963" y="417"/>
      <point x="2046" y="438"/>
      <point x="2046" y="537" type="curve" smooth="yes"/>
      <point x="2046" y="625"/>
      <point x="1988" y="656"/>
      <point x="1901" y="656" type="curve" smooth="yes"/>
      <point x="183" y="656" type="line" smooth="yes"/>
      <point x="83" y="656"/>
      <point x="0" y="633"/>
      <point x="0" y="537" type="curve" smooth="yes"/>
      <point x="0" y="476"/>
      <point x="35" y="417"/>
    </contour>
  </outline>
</glyph>
<glyph name="quoteleft" format="1">
  <advance width="649"/>
  <unicode hex="2018"/>
  <outline>
    <contour>
      <point x="99" y="930" type="line"/>
      <point x="427" y="930" type="line"/>
      <point x="544" y="1451" type="line"/>
      <point x="271" y="1451" type="line"/>
    </contour>
  </outline>
</glyph>
<glyph name="quoteright" format="1">
  <advance width="649"/>
  <unicode hex="2019"/>
  <outline>
    <contour>
      <point x="106" y="930" type="line"/>
      <point x="379" y="930" type="line"/>
      <point x="552" y="1451" type="line"/>
      <point x="223" y="1451" type="line"/>
    </contour>
  </outline>
</glyph>
<glyph name="quotedblleft" format="1">
  <advance width="1178"/>
  <unicode hex="201C"/>
  <outline>
    <contour>
      <point x="120" y="930" type="line"/>
      <point x="449" y="930" type="line"/>
      <point x="565" y="1451" type="line"/>
      <point x="292" y="1451" type="line"/>
    </contour>
    <contour>
      <point x="600" y="930" type="line"/>
      <point x="929" y="930" type="line"/>
      <point x="1045" y="1451" type="line"/>
      <point x="772" y="1451" type="line"/>
    </contour>
  </outline>
</glyph>
<glyph name="quotedblright" format="1">
  <advance width="1178"/>
  <unicode hex="201D"/>
  <outline>
    <contour>
      <point x="131" y="930" type="line"/>
      <point x="404" y="930" type="line"/>
      <point x="577" y="1451" type="line"/>
      <point x="248" y="1451" type="line"/>
    </contour>
    <contour>
      <point x="609" y="930" type="line"/>
      <point x="882" y="930" type="line"/>
      <point x="1055" y="1451" type="line"/>
      <point x="725" y="1451" type="line"/>
    </contour>
  </outline>
</glyph>
<glyph name="quotedblbase" format="1">
  <advance width="1178"/>
  <unicode hex="201E"/>
  <outline>
    <contour>
      <point x="136" y="-220" type="line"/>
      <point x="409" y="-220" type="line"/>
      <point x="581" y="301" type="line"/>
      <point x="252" y="301" type="line"/>
    </contour>
    <contour>
      <point x="581" y="-220" type="line"/>
      <point x="883" y="-220" type="line"/>
      <point x="1055" y="301" type="line"/>
      <point x="726" y="301" type="line"/>
    </contour>
  </outline>
</glyph>
<glyph name="ellipsis" format="1">
  <advance width="1948"/>
  <unicode hex="2026"/>
  <outline>
    <contour>
      <point x="324" y="-6" type="curve" smooth="yes"/>
      <point x="420" y="-6"/>
      <point x="493" y="69"/>
      <point x="493" y="158" type="curve" smooth="yes"/>
      <point x="493" y="256"/>
      <point x="412" y="322"/>
      <point x="324" y="322" type="curve" smooth="yes"/>
      <point x="225" y="322"/>
      <point x="155" y="245"/>
      <point x="155" y="158" type="curve" smooth="yes"/>
      <point x="155" y="65"/>
      <point x="232" y="-6"/>
    </contour>
    <contour>
      <point x="973" y="-6" type="curve" smooth="yes"/>
      <point x="1071" y="-6"/>
      <point x="1143" y="69"/>
      <point x="1143" y="158" type="curve" smooth="yes"/>
      <point x="1143" y="259"/>
      <point x="1058" y="322"/>
      <point x="973" y="322" type="curve" smooth="yes"/>
      <point x="874" y="322"/>
      <point x="804" y="245"/>
      <point x="804" y="158" type="curve" smooth="yes"/>
      <point x="804" y="65"/>
      <point x="881" y="-6"/>
    </contour>
    <contour>
      <point x="1623" y="-6" type="curve" smooth="yes"/>
      <point x="1719" y="-6"/>
      <point x="1792" y="69"/>
      <point x="1792" y="158" type="curve" smooth="yes"/>
      <point x="1792" y="256"/>
      <point x="1711" y="322"/>
      <point x="1623" y="322" type="curve" smooth="yes"/>
      <point x="1524" y="322"/>
      <point x="1454" y="245"/>
      <point x="1454" y="158" type="curve" smooth="yes"/>
      <point x="1454" y="65"/>
      <point x="1527" y="-6"/>
    </contour>
  </outline>
</glyph>
<glyph name="product" format="1">
  <advance width="1630"/>
  <unicode hex="220F"/>
  <outline>
    <contour>
      <point x="178" y="1462" type="line" smooth="yes"/>
      <point x="105" y="1462"/>
      <point x="71" y="1400"/>
      <point x="71" y="1338" type="curve" smooth="yes"/>
      <point x="71" y="1275"/>
      <point x="106" y="1212"/>
      <point x="171" y="1212" type="curve" smooth="yes"/>
      <point x="301" y="1212" type="line"/>
      <point x="301" y="145" type="line" smooth="yes"/>
      <point x="301" y="50"/>
      <point x="375" y="0"/>
      <point x="449" y="0" type="curve" smooth="yes"/>
      <point x="521" y="0"/>
      <point x="592" y="48"/>
      <point x="592" y="145" type="curve" smooth="yes"/>
      <point x="592" y="1212" type="line"/>
      <point x="1055" y="1212" type="line"/>
      <point x="1055" y="140" type="line" smooth="yes"/>
      <point x="1055" y="46"/>
      <point x="1127" y="0"/>
      <point x="1200" y="0" type="curve" smooth="yes"/>
      <point x="1273" y="0"/>
      <point x="1347" y="47"/>
      <point x="1347" y="140" type="curve"/>
      <point x="1348" y="1212" type="line"/>
      <point x="1455" y="1212" type="line" smooth="yes"/>
      <point x="1524" y="1212"/>
      <point x="1558" y="1275"/>
      <point x="1558" y="1337" type="curve" smooth="yes"/>
      <point x="1558" y="1400"/>
      <point x="1524" y="1462"/>
      <point x="1456" y="1462" type="curve" smooth="yes"/>
    </contour>
  </outline>
</glyph>
<glyph name="minus" format="1">
  <advance width="839"/>
  <unicode hex="2212"/>
  <outline>
    <contour>
      <point x="166" y="417" type="curve" smooth="yes"/>
      <point x="641" y="417" type="line" smooth="yes"/>
      <point x="730" y="417"/>
      <point x="786" y="459"/>
      <point x="786" y="536" type="curve" smooth="yes"/>
      <point x="786" y="630"/>
      <point x="709" y="656"/>
      <point x="641" y="656" type="curve" smooth="yes"/>
      <point x="193" y="656" type="line" smooth="yes"/>
      <point x="101" y="656"/>
      <point x="47" y="614"/>
      <point x="47" y="537" type="curve" smooth="yes"/>
      <point x="47" y="469"/>
      <point x="94" y="417"/>
    </contour>
  </outline>
</glyph>
<glyph name="caron.alt" format="1">
  <advance width="600"/>
  <outline>
    <contour>
      <point x="319" y="293" type="curve"/>
      <point x="452" y="293" type="line"/>
      <point x="481" y="292"/>
      <point x="497" y="304"/>
      <point x="508" y="336" type="curve" smooth="yes"/>
      <point x="689" y="806" type="line" smooth="yes"/>
      <point x="694" y="820"/>
      <point x="697" y="859"/>
      <point x="655" y="862" type="curve"/>
      <point x="452" y="862" type="line"/>
      <point x="420" y="861"/>
      <point x="387" y="853"/>
      <point x="379" y="806" type="curve" smooth="yes"/>
      <point x="295" y="336" type="line" smooth="yes"/>
      <point x="293" y="324"/>
      <point x="291" y="294"/>
    </contour>
    <contour>
      <point x="0" y="300" type="move" name="_caron.alt"/>
    </contour>
  </outline>
</glyph>
